<svg width="126" height="126" viewBox="0 0 126 126" fill="none" xmlns="http://www.w3.org/2000/svg">
<g id="Logo Pedagogia">
<path fill-rule="evenodd" clip-rule="evenodd" d="M88.8501 57.528C74.4173 60.1015 67.9824 73.8971 67.5845 87.3059C67.5845 87.4 67.5845 87.4941 67.5845 87.5902H66.3164C66.2752 85.7485 66.2855 83.8795 66.37 81.998C66.6587 75.649 67.6999 69.1599 69.704 63.1391C75.9286 44.4265 81.1162 44.1735 74.3122 22.0471C67.6917 28.4776 66.5103 50.7588 66.7453 57.6158C64.2711 49.1762 65.2031 34.1012 68.1886 26.3411C71.5761 17.5315 71.6339 7.41527 63.199 6.10352e-05C55.1269 7.90864 54.8383 17.7928 58.3764 26.7592C61.399 34.4148 62.2361 49.2891 59.8196 57.6284C60.0794 50.7149 58.9516 28.8268 52.3971 22.7767C46.0941 44.6544 50.4569 44.4516 56.5826 63.1516C58.5557 69.1724 59.5784 75.6615 59.8629 82.0105C59.9475 83.892 59.9598 85.761 59.9186 87.6028H58.4362C58.4362 87.5066 58.4362 87.4125 58.4362 87.3185C58.0362 73.9096 51.6095 60.114 37.1705 57.5406C20.9893 54.6577 11.0782 67.1906 17.9605 79.9722C27.1913 66.1955 47.3601 72.8999 51.6631 87.6028H49.8961C49.1187 87.6235 48.38 87.9512 47.8373 88.5161C47.2947 89.0809 46.9911 89.8383 46.9911 90.6268C46.9911 91.4153 47.2947 92.1727 47.8373 92.7375C48.38 93.3024 49.1187 93.63 49.8961 93.6508H52.4713C52.4713 93.7887 52.4713 93.9267 52.4713 94.0689C52.2528 100.596 49.4734 109.993 43.9209 110.873C49.9868 106.972 45.1189 99.6862 39.7045 100.805C32.3809 102.316 31.9335 111.232 37.9128 114.084C40.9767 115.547 44.1622 114.673 47.0425 113.333C53.6404 110.262 57.2795 102.672 58.2114 93.6529H59.5557C59.3495 95.8626 59.0547 98.0033 58.6856 100.04C57.7001 105.508 56.1826 110.233 54.3434 113.611L63.1948 126L72.0462 113.597C70.1432 110.218 68.5783 105.494 67.5638 100.025C67.1865 97.9887 66.8855 95.8438 66.669 93.6382H67.803C68.7329 102.657 72.3658 110.248 78.9698 113.319C81.8564 114.659 85.0378 115.531 88.0996 114.069C94.0789 111.218 93.6315 102.301 86.3099 100.79C80.8956 99.6716 76.0276 106.957 82.0935 110.858C76.541 109.978 73.7596 100.581 73.5431 94.0542C73.5431 93.9142 73.5431 93.7762 73.5431 93.6361H76.508C77.2854 93.6154 78.0241 93.2877 78.5668 92.7229C79.1094 92.158 79.4131 91.4007 79.4131 90.6121C79.4131 89.8236 79.1094 89.0663 78.5668 88.5014C78.0241 87.9366 77.2854 87.6089 76.508 87.5882H74.3576C78.6585 72.8853 98.8273 66.1808 108.06 79.9576C114.94 67.178 105.029 54.6451 88.8501 57.528Z" fill="#00407A"/>
<path d="M37.4633 25.162C37.4633 25.162 21.5708 32.3159 9.81221 32.3159C7.37926 32.3159 1.62059 31.7201 0 27.8756C6.48649 27.3822 20.6574 24.5662 29.0305 21.6269C29.4758 25.5216 37.4633 25.162 37.4633 25.162ZM38.8427 25.1202C33.1252 28.3898 19.076 32.7068 11.0493 33.4469C12.1441 35.0503 17.9729 36.2461 23.5151 35.851C32.3953 35.2239 41.8839 29.5313 44.1931 27.6184C42.0653 27.125 41.9436 24.6289 38.8427 25.1097M45.1663 28.3794C43.1601 29.7361 33.3067 35.4706 24.6099 36.5806C27.8346 39.5409 34.4799 38.7214 37.4633 37.8141C42.1272 36.3946 50.9744 30.9382 50.9744 30.9382C50.9744 30.9382 47.5394 27.8546 45.1663 28.3794ZM51.6548 31.2978C50.1126 32.4497 40.3004 37.6698 37.6654 38.4935C39.2687 38.9665 40.9226 39.2409 42.5911 39.3109C43.4034 36.9716 46.4157 35.0503 48.1972 34.166C51.2064 32.6099 54.637 32.1009 57.9599 32.7173C58.4403 32.2992 58.7289 32.0379 58.7289 32.0379C58.7289 32.0379 53.3167 31.8288 51.6548 31.2978ZM59.6011 32.3264C59.364 32.4894 59.065 32.7215 58.7186 32.9995C60.4526 33.6622 61.801 35.2552 62.1516 35.6148C62.6832 34.4158 62.865 33.0875 62.6753 31.787C62.6753 31.787 60.5227 31.6992 59.6011 32.3264ZM60.6547 27.309C51.8156 27.309 53.8032 18.7775 53.8032 17.0506C53.8032 15.3238 53.6816 11.6863 48.1972 12.3657C42.7127 13.0451 33.3706 18.8924 30.1645 21.0541C30.084 22.5342 34.3623 24.8777 40.1189 24.1376C40.5313 24.2066 45.7353 23.1112 46.0797 23.2429C46.4157 23.4373 41.9003 24.7753 42.1045 24.8819C43.6117 25.6805 44.3869 26.9118 45.5725 27.2191C45.9312 27.2986 50.294 26.4498 50.9744 26.7257C51.2012 26.8177 47.7559 27.8944 47.9972 28.001C49.4513 28.5275 50.7873 29.3426 51.927 30.3989C52.1806 30.4469 55.5022 29.9807 55.7723 30.033C56.0424 30.0853 53.7208 30.9152 54.0074 30.9591C55.571 31.1944 57.1502 31.3076 58.731 31.2978C60.131 31.2978 61.8485 30.8671 62.6175 31.2978C63.0031 31.4337 61.1743 27.3111 60.6567 27.3111M126 27.886C119.514 27.3926 105.343 24.5767 96.9716 21.6373C96.5242 25.532 88.5367 25.1725 88.5367 25.1725C88.5367 25.1725 104.435 31.9814 116.19 32.3264C119.002 32.4079 123.27 31.442 126 27.886ZM114.953 33.4573C106.924 32.7173 92.8748 28.4003 87.1594 25.1307C84.0667 24.6394 83.9347 27.1355 81.7987 27.6393C84.11 29.5522 93.615 35.0232 102.477 35.8719C104.194 36.0371 109.841 36.2002 114.945 33.4678M75.0194 30.9487C75.0194 30.9487 83.8687 36.405 88.5305 37.8245C91.516 38.7318 98.1613 39.5513 101.384 36.5911C92.6871 35.481 82.8275 29.7466 80.8275 28.3898C78.4564 27.8651 75.0194 30.9487 75.0194 30.9487ZM67.2649 32.0274C67.2649 32.0274 67.6071 32.3368 68.1659 32.8218C71.0525 31.787 75.405 32.9535 77.5472 33.9089C79.3595 34.7159 81.5533 36.035 83.376 39.3005C85.052 39.2322 86.7136 38.9577 88.3243 38.483C85.6893 37.6594 75.8771 32.4392 74.3369 31.2873C72.673 31.8225 67.2608 32.0274 67.2608 32.0274M63.3144 31.7765C63.3144 31.7765 62.9021 34.0594 64.0629 36.0266C64.6814 35.0796 65.735 33.98 67.4834 33.1626C67.0463 32.8051 66.6731 32.5124 66.3886 32.3264C65.467 31.6992 63.3144 31.787 63.3144 31.787M77.7925 12.3678C72.3081 11.6884 72.1865 15.328 72.1865 17.0527C72.1865 18.7774 74.174 27.3111 65.335 27.3111C64.8278 27.3111 62.9887 31.4337 63.3742 31.2978C64.1433 30.8671 65.8628 31.2978 67.2608 31.2978C68.8413 31.3111 70.4204 31.2013 71.9844 30.9696C72.271 30.9257 69.9432 30.0915 70.2215 30.0435C70.4999 29.9954 73.8112 30.4616 74.0668 30.4093C75.2022 29.3531 76.534 28.5371 77.9843 28.0094C78.2276 27.9027 74.7823 26.8261 75.007 26.7341C75.6895 26.4582 80.0523 27.3069 80.409 27.2275C81.6172 26.9076 82.3863 25.6784 83.8852 24.8798C84.0914 24.7732 79.574 23.4352 79.9121 23.2408C80.2544 23.1091 85.4481 24.2045 85.8708 24.1355C91.6294 24.8756 95.9056 22.5321 95.8252 21.052C92.6212 18.8924 83.277 13.0347 77.7925 12.3573M66.8505 86.6976C67.5087 86.9867 68.0893 87.4309 68.5441 87.9935C68.9988 88.556 69.3145 89.2205 69.4648 89.9317C69.8628 91.3616 69.3927 92.4905 68.3308 93.5337C67.3365 94.4127 66.144 95.0301 64.8587 95.3316C66.5288 95.5406 67.836 96.1678 69.1453 96.9162C69.3308 96.8054 69.5143 96.6904 69.6958 96.5671C71.4957 95.3964 73.2504 92.9839 72.9741 90.1616C72.8112 87.8139 71.4896 85.1986 69.2628 83.821C67.0917 82.4077 64.566 82.1297 62.3825 82.1694C60.5536 82.1694 58.6609 81.9604 57.1125 81.3332C55.5166 80.6789 54.6383 79.7757 54.595 78.6531C54.5434 77.2441 55.063 75.5361 56.0919 74.6518C56.5749 74.2052 57.1337 73.851 57.7413 73.6065L57.0898 73.4455C55.5345 73.0895 54.0258 72.5492 52.595 71.8358C51.1027 73.6185 50.297 75.8885 50.327 78.2266C50.3048 79.7572 50.7963 81.2499 51.7208 82.46C52.5857 83.5343 53.7001 84.374 54.9641 84.9039C57.2754 85.9053 59.5495 86.1059 61.7392 86.108C63.8732 86.0035 65.4134 86.0432 66.8587 86.7038M66.3927 108.722C65.5453 107.722 64.2876 106.997 62.9619 106.614C61.8547 106.282 60.7289 105.816 59.8691 105.109C58.1557 103.949 57.9846 100.61 59.8526 99.496C60.0301 99.3821 60.2154 99.2815 60.4073 99.1949C59.4052 98.8374 58.4135 98.4423 57.397 98.1099C56.5723 99.0967 56.0609 100.357 56.0692 101.526C55.9558 103.297 56.63 105.193 57.8774 106.315C60.3805 108.659 63.3887 108.23 64.7474 109.485C66.3474 110.647 66.5288 112.591 66.2979 114.048C65.7783 117.167 63.1082 116.894 63.2381 117.117C63.1701 117.207 63.5412 117.397 64.3825 117.326C65.1845 117.299 66.6505 116.561 67.2525 114.864C67.5809 113.969 67.7309 113.016 67.6937 112.062C67.6522 110.827 67.1895 109.645 66.3845 108.717M59.9681 114.057C59.7372 112.593 59.9186 110.655 61.5186 109.493C61.6357 109.385 61.7628 109.29 61.898 109.207C61.3165 108.952 60.7392 108.686 60.166 108.416C60.0691 108.515 59.9722 108.625 59.8836 108.722C59.0772 109.649 58.6137 110.831 58.5722 112.066C58.5341 113.021 58.6841 113.973 59.0135 114.868C59.6073 116.565 61.0753 117.303 61.8835 117.331C62.7248 117.412 63.0959 117.222 63.0278 117.121C63.1577 116.898 60.4877 117.172 59.9681 114.053M70.1989 101.522C70.2092 99.6799 68.9411 97.6082 67.17 96.7406C65.5474 95.7769 63.3041 95.6953 61.9701 95.4549C60.4712 95.1748 58.9949 94.5225 57.9351 93.5358C56.8733 92.4905 56.4032 91.3637 56.8011 89.9338C57.0571 88.7623 57.752 87.7375 58.7392 87.076C58.4485 87.0237 58.1599 86.9652 57.8733 86.8878C56.8424 86.6056 55.8981 86.1561 54.9104 85.7924C53.9813 87.0688 53.4215 88.5826 53.294 90.1637C53.0156 92.986 54.7702 95.3901 56.5702 96.5692C58.2967 97.7153 60.2846 98.3926 62.3433 98.5364C64.1103 98.6096 65.4051 98.8333 66.4051 99.4918C68.2731 100.606 68.102 103.945 66.3886 105.105C65.7128 105.635 64.9556 106.048 64.1474 106.328C65.0219 106.659 65.8745 107.048 66.6999 107.49C67.3116 107.179 67.8772 106.782 68.3803 106.311C69.6277 105.189 70.3019 103.292 70.1885 101.522M72.7081 70.9034C70.5452 69.0867 67.9391 68.4219 65.5577 68.1857C62.9825 67.9996 61.2279 68.1564 59.2361 67.7801C55.4094 67.3118 51.5002 65.1418 51.8445 63.0011C51.8033 60.3586 53.8445 58.636 56.7702 57.7224C54.4362 57.4256 52.1476 56.8758 49.9662 55.82C49.8869 55.7814 49.811 55.736 49.7394 55.6842C47.6776 57.597 46.5312 60.6659 46.7456 63.5049C46.8517 65.1725 47.4875 66.7604 48.558 68.031C49.5057 69.1153 50.6493 70.0059 51.927 70.6546C54.2898 71.8818 56.6877 72.3961 59.0671 72.6971C61.4464 72.9981 63.9268 72.741 65.6154 72.9312C67.4587 73.1152 69.1308 73.6734 70.1514 74.6581C71.1823 75.5424 71.6999 77.2503 71.6483 78.6594C71.5968 79.782 70.7267 80.6851 69.1308 81.3395C68.6166 81.5416 68.0871 81.701 67.5473 81.8161C69.2092 82.4809 70.7432 83.4468 72.3617 84.3478C73.1961 83.8645 73.9334 83.2262 74.5349 82.4663C75.4566 81.261 75.9486 79.7747 75.9307 78.2496C75.9617 75.6511 74.8998 72.7368 72.6998 70.9139M63.0361 35.6043L61.2547 39.798C61.2732 43.0969 61.2938 46.5714 61.3206 50.1567H64.7247C64.7598 46.5735 64.7907 43.1011 64.8154 39.798L63.0361 35.6043ZM63.0464 29.8072L64.8835 26.3536C64.8835 25.647 64.8835 24.953 64.8835 24.2882C64.8835 23.3558 64.0588 22.9418 63.0443 22.9418C62.0299 22.9418 61.2072 23.2178 61.2072 24.2882C61.2072 24.953 61.2072 25.647 61.2072 26.3536L63.0464 29.8072ZM61.3825 57.8479C61.4093 60.9189 61.4402 64.0317 61.4732 67.1488H64.5206C64.5618 64.0338 64.6031 60.921 64.6381 57.8479H61.3825ZM61.5475 73.6546C61.5804 76.4099 61.6155 79.1465 61.6547 81.8349H64.2979C64.3412 79.1465 64.3845 76.3995 64.4258 73.6546H61.5475ZM64.0608 94.7232C64.1144 92.0787 64.166 89.3275 64.2154 86.5011H61.7227C61.766 89.3275 61.8114 92.0787 61.8608 94.7232H64.0608ZM63.8093 105.945C63.8629 103.84 63.9144 101.589 63.966 99.2242H61.9474C61.9969 101.589 62.0485 103.838 62.1021 105.945H63.8093ZM62.1969 109.485C62.4402 117.974 62.7268 123.358 63.0464 123.172C63.2526 123.048 63.4897 117.736 63.7165 109.485H62.1969ZM63.0464 10.5135C62.1321 10.5135 61.2384 10.7884 60.4782 11.3034C59.718 11.8184 59.1255 12.5504 58.7757 13.4069C58.4258 14.2633 58.3342 15.2057 58.5126 16.1149C58.691 17.0241 59.1312 17.8592 59.7777 18.5147C60.4242 19.1702 61.2479 19.6166 62.1446 19.7975C63.0413 19.9783 63.9707 19.8855 64.8154 19.5308C65.6601 19.176 66.382 18.5753 66.89 17.8045C67.3979 17.0337 67.669 16.1275 67.669 15.2005C67.669 14.5851 67.5494 13.9757 67.3171 13.4072C67.0848 12.8386 66.7442 12.3221 66.3149 11.887C65.8857 11.4519 65.3761 11.1069 64.8152 10.8716C64.2544 10.6363 63.6533 10.5153 63.0464 10.5156M63.0464 20.3266C61.5536 20.3914 60.2506 19.5008 59.8382 19.9084C59.364 20.2513 60.564 22.6262 63.0464 22.6429C65.5288 22.6596 66.7309 20.2513 66.2567 19.9084C65.8443 19.5091 64.5412 20.3997 63.0464 20.3266ZM79.5039 63.5133C79.4001 65.1799 78.7672 66.7677 77.6998 68.0393C76.7531 69.1201 75.6117 70.0077 74.3369 70.6546H74.3184C72.5526 69.169 70.4737 68.1147 68.2422 67.5732C71.6359 66.8498 74.7266 64.914 74.4277 63.0011C74.473 59.9301 71.7122 58.1008 68.0154 57.342C61.3804 56.0186 50.527 58.4311 44.1395 49.8808C43.4011 48.7686 42.9204 47.5014 42.7333 46.1742C42.5664 45.0071 42.5623 43.822 42.721 42.6537C42.9746 40.3123 44.2611 37.8203 46.0962 36.3444C49.8074 33.4176 53.4816 33.2838 56.5248 32.9995C58.1248 32.9347 60.6774 34.7326 61.7536 36.4322C61.7498 36.7118 61.6548 36.9823 61.4835 37.2015C60.6588 38.3325 58.1207 38.8928 56.8486 38.9409C54.3146 39.083 52.8899 36.3988 49.6219 40.0092C48.8611 40.6489 48.6343 42.3088 48.4549 43.5046C48.3291 44.9011 48.3621 45.8983 48.9868 46.7658C50.1951 48.7163 53.5476 50.2257 57.0424 50.7902C58.8691 51.1142 60.5763 51.1811 62.7186 51.2438C64.9877 51.2862 67.2464 51.5664 69.4587 52.08C71.7432 52.6717 74.2009 53.556 76.3163 55.4918C78.5121 57.3859 79.741 60.5719 79.5183 63.5049M56.2362 34.6803C56.2362 34.7779 56.2647 34.8733 56.3182 34.9544C56.3717 35.0356 56.4477 35.0988 56.5366 35.1361C56.6255 35.1735 56.7233 35.1833 56.8177 35.1642C56.9121 35.1452 56.9988 35.0982 57.0669 35.0292C57.1349 34.9602 57.1813 34.8723 57.2 34.7766C57.2188 34.6809 57.2092 34.5817 57.1723 34.4915C57.1355 34.4014 57.0731 34.3243 56.9931 34.2701C56.9131 34.2159 56.819 34.1869 56.7228 34.1869C56.5937 34.1869 56.47 34.2389 56.3787 34.3315C56.2875 34.424 56.2362 34.5495 56.2362 34.6803ZM83.5368 46.1784C83.3497 47.5056 82.869 48.7728 82.1306 49.8849C80.7451 51.7603 78.9515 53.2863 76.8895 54.3441C75.6518 53.563 74.3542 52.8842 73.0091 52.3142C71.8648 51.8124 70.6648 51.2354 69.4525 50.9281C69.2999 50.8905 69.1453 50.8591 68.9906 50.8278L69.2277 50.7902C72.7225 50.2257 76.075 48.7163 77.2812 46.7658C77.8998 45.8983 77.941 44.9011 77.8152 43.5046C77.6358 42.3004 77.4029 40.6489 76.6482 40.0092C73.3802 36.3988 71.9555 39.083 69.4319 38.9409C67.8979 38.8823 64.5309 38.0796 64.5268 36.4322C65.6031 34.7326 68.1556 32.9347 69.7556 32.9995C72.7988 33.288 76.4627 33.4323 80.1842 36.3444C82.0193 37.8203 83.3058 40.3165 83.5595 42.6537C83.7181 43.822 83.714 45.0071 83.5471 46.1742M70.0731 34.6761C70.0731 34.5786 70.0446 34.4833 69.9912 34.4023C69.9378 34.3212 69.862 34.2579 69.7732 34.2205C69.6844 34.1831 69.5866 34.1732 69.4923 34.1921C69.398 34.211 69.3113 34.2578 69.2431 34.3265C69.175 34.3953 69.1285 34.483 69.1095 34.5786C69.0905 34.6742 69.0998 34.7733 69.1364 34.8635C69.1729 34.9537 69.2349 35.0309 69.3147 35.0853C69.3944 35.1398 69.4883 35.1691 69.5844 35.1695C69.6485 35.1698 69.712 35.1572 69.7713 35.1326C69.8306 35.1079 69.8844 35.0716 69.9298 35.0257C69.9752 34.9799 70.0113 34.9254 70.0358 34.8654C70.0604 34.8054 70.0731 34.7411 70.0731 34.6761Z" fill="#38ACFF"/>
</g>
</svg>
