<svg width="56" height="56" viewBox="0 0 56 56" fill="none" xmlns="http://www.w3.org/2000/svg">
<circle cx="28" cy="28" r="27.5" stroke="#00407A"/>
<path d="M39.7104 16.7965C39.4494 16.531 39.0954 16.363 38.7504 16.2519C38.3437 16.1302 37.9246 16.0547 37.5009 16.0269C36.5709 15.9534 35.41 16.0269 34.123 16.2894C31.5475 16.8175 28.396 18.1225 25.4725 20.6501C22.5475 23.1792 20.7205 26.2363 19.8355 28.7849C19.3945 30.0554 19.1755 31.236 19.192 32.187C19.1995 32.661 19.267 33.117 19.423 33.507C19.4485 33.567 19.4755 33.6301 19.507 33.6901C18.3274 35.3585 17.1979 37.0618 16.12 38.7977C16.0107 38.9729 15.9742 39.1839 16.0182 39.3856C16.0622 39.5874 16.1832 39.764 16.3555 39.8778C16.4403 39.9329 16.5352 39.9705 16.6348 39.9882C16.7343 40.006 16.8364 40.0036 16.935 39.9813C17.0336 39.9589 17.1267 39.9169 17.2088 39.8579C17.2909 39.7989 17.3603 39.7241 17.413 39.6378C18.4446 37.9768 19.5241 36.3461 20.65 34.7476C21.0775 34.9591 21.574 35.0401 22.087 35.0206C22.8565 34.9906 23.734 34.7386 24.6715 34.2856C26.5465 33.378 28.7875 31.605 31.126 28.8224L33.403 26.4973C33.548 26.3493 33.6292 26.1503 33.6292 25.943C33.6292 25.7358 33.548 25.5368 33.403 25.3888L32.3095 24.2727L34.276 24.5862C34.3967 24.6052 34.5202 24.5947 34.6359 24.5555C34.7516 24.5163 34.8561 24.4496 34.9405 24.3612C35.2735 24.0162 35.6065 23.6712 35.9349 23.3352C36.9294 22.3152 37.8729 21.3476 38.5794 20.4971C39.0504 19.9301 39.4569 19.3691 39.7104 18.8365C39.9549 18.319 40.1274 17.677 39.8784 17.0545C39.84 16.9582 39.7829 16.8706 39.7104 16.7965ZM21.5995 33.4305C24.0775 30.0614 26.86 26.8228 29.9635 24.0912L31.7785 25.9423L30.022 27.7363C30.0079 27.7508 29.9944 27.7658 29.9815 27.7813C27.7315 30.4649 25.645 32.082 24.016 32.871C23.2 33.2655 22.531 33.438 22.03 33.456C21.8859 33.4632 21.7415 33.4557 21.5995 33.4305ZM31.753 22.6002C33.718 21.0581 35.8029 19.7291 38.0109 18.7C37.8236 18.971 37.6234 19.2328 37.4109 19.4846C36.7479 20.2841 35.869 21.1856 34.8895 22.1907L34.1245 22.9767L31.753 22.6002ZM36.7719 17.5645C30.391 20.7206 25.0675 26.2003 20.7235 32.0175C20.734 31.3215 20.905 30.3884 21.2785 29.3084C22.078 27.0058 23.7535 24.1857 26.461 21.8441C29.1715 19.5026 32.08 18.304 34.426 17.824C35.1975 17.6603 35.9833 17.5734 36.7719 17.5645Z" fill="#00407A"/>
</svg>
