<svg width="25" height="17" viewBox="0 0 25 17" fill="none" xmlns="http://www.w3.org/2000/svg">
<path fill-rule="evenodd" clip-rule="evenodd" d="M24.1667 0.580079H0.834741C0.61374 0.580079 0.401791 0.650317 0.24552 0.775341C0.0892487 0.900366 0.00145625 1.06993 0.00145625 1.24675V15.9134C0.00145625 16.0902 0.0892487 16.2598 0.24552 16.3848C0.401791 16.5098 0.61374 16.5801 0.834741 16.5801H24.1667C24.3877 16.5801 24.5997 16.5098 24.7559 16.3848C24.9122 16.2598 25 16.0902 25 15.9134V1.24675C25 1.06993 24.9122 0.900366 24.7559 0.775341C24.5997 0.650317 24.3877 0.580079 24.1667 0.580079ZM1.66803 15.2467V1.91341H23.3334V15.2467H1.66803Z" fill="#00407A"/>
<path fill-rule="evenodd" clip-rule="evenodd" d="M24.7067 1.75341L12.9657 9.75341C12.8146 9.85651 12.6224 9.91303 12.4238 9.91279C12.2251 9.91254 12.0332 9.85555 11.8824 9.75208L0.289773 1.75208C0.160725 1.66324 0.0687861 1.54491 0.0263286 1.413C-0.0161289 1.2811 -0.00706796 1.14196 0.052292 1.0143C0.111652 0.886641 0.218463 0.776592 0.358351 0.69896C0.49824 0.621329 0.664494 0.579841 0.834741 0.580079H24.1667C24.3369 0.580341 24.5029 0.622295 24.6425 0.700301C24.782 0.778306 24.8883 0.88862 24.9471 1.01641C25.0059 1.14419 25.0144 1.28332 24.9714 1.41508C24.9284 1.54684 24.836 1.66491 24.7067 1.75341ZM21.9035 1.91341H3.07628L12.4291 8.36808L21.9035 1.91341Z" fill="#00407A"/>
</svg>
