<svg width="56" height="56" viewBox="0 0 56 56" fill="none" xmlns="http://www.w3.org/2000/svg">
<circle cx="28" cy="28" r="27.5" stroke="#00407A"/>
<path d="M27.5 14C28.7096 14 29.8814 14.1593 30.9965 14.4576L28.1264 17.3264C27.9087 17.545 27.7166 17.7878 27.554 18.05H27.5C25.631 18.05 23.8039 18.6042 22.2499 19.6426C20.6958 20.681 19.4846 22.1569 18.7693 23.8836C18.0541 25.6104 17.8669 27.5105 18.2316 29.3436C18.5962 31.1767 19.4962 32.8606 20.8178 34.1822C22.1394 35.5038 23.8233 36.4038 25.6564 36.7684C27.4895 37.1331 29.3896 36.9459 31.1164 36.2307C32.8431 35.5154 34.319 34.3042 35.3574 32.7501C36.3958 31.1961 36.95 29.369 36.95 27.5V27.446C37.2092 27.284 37.4522 27.0936 37.6723 26.8722L40.5423 24.0035C40.8407 25.1186 41 26.2904 41 27.5C41 34.9561 34.9561 41 27.5 41C20.044 41 14 34.9561 14 27.5C14 20.044 20.044 14 27.5 14ZM26.9411 20.773C26.9411 21.9218 26.8844 23.0869 26.9465 24.2344L26.2175 24.9634C25.9667 25.2141 25.7678 25.5118 25.6321 25.8395C25.4964 26.1671 25.4265 26.5183 25.4265 26.8729C25.4265 27.2276 25.4964 27.5787 25.6321 27.9064C25.7678 28.234 25.9667 28.5317 26.2175 28.7825C26.4683 29.0333 26.766 29.2322 27.0936 29.3679C27.4213 29.5036 27.7724 29.5735 28.1271 29.5735C28.4817 29.5735 28.8329 29.5036 29.1605 29.3679C29.4882 29.2322 29.7859 29.0333 30.0366 28.7825L30.7656 28.0535C31.9132 28.1156 33.0769 28.0589 34.2271 28.0589C34.1204 29.3419 33.6491 30.5676 32.8687 31.5915C32.0883 32.6154 31.0314 33.3947 29.8226 33.8377C28.6138 34.2806 27.3036 34.3686 26.0464 34.0913C24.7893 33.8141 23.6376 33.183 22.7273 32.2727C21.817 31.3624 21.186 30.2107 20.9087 28.9536C20.6314 27.6964 20.7194 26.3862 21.1623 25.1774C21.6053 23.9686 22.3846 22.9117 23.4085 22.1313C24.4324 21.3509 25.6581 20.8796 26.9411 20.773ZM36.2804 14.1715C36.5268 14.2736 36.7374 14.4465 36.8857 14.6683C37.0339 14.89 37.1132 15.1507 37.1133 15.4175V17.888H39.5825C39.8495 17.8881 40.1104 17.9673 40.3324 18.1156C40.5543 18.264 40.7273 18.4748 40.8295 18.7214C40.9316 18.9681 40.9584 19.2395 40.9063 19.5013C40.8542 19.7631 40.7257 20.0037 40.5369 20.1925L35.762 24.962C35.5089 25.2152 35.1656 25.3575 34.8076 25.3576H31.55L29.0808 27.8267C28.8275 28.0798 28.484 28.222 28.1259 28.2218C27.7678 28.2217 27.4244 28.0793 27.1713 27.826C26.9181 27.5727 26.776 27.2292 26.7761 26.8711C26.7763 26.513 26.9186 26.1696 27.172 25.9164L29.6411 23.45V20.1911C29.641 20.0136 29.6758 19.8378 29.7437 19.6738C29.8116 19.5098 29.9111 19.3608 30.0366 19.2353L34.8089 14.463C34.9977 14.2741 35.2383 14.1455 35.5002 14.0933C35.7621 14.0412 36.0337 14.0679 36.2804 14.1701V14.1715Z" fill="#00407A"/>
</svg>
