<svg width="56" height="56" viewBox="0 0 56 56" fill="none" xmlns="http://www.w3.org/2000/svg">
<circle cx="28" cy="28" r="27.5" stroke="#00407A"/>
<path d="M21.2831 26.8161C21.5175 25.1715 22.3373 23.6666 23.5922 22.5779C24.847 21.4892 26.4525 20.8898 28.1138 20.8898C29.7751 20.8898 31.3806 21.4892 32.6354 22.5779C33.8902 23.6666 34.7101 25.1715 34.9445 26.8161C34.9625 26.9292 34.9578 27.0448 34.9306 27.156C34.9035 27.2673 34.8545 27.372 34.7864 27.4641C34.7184 27.5562 34.6327 27.6339 34.5343 27.6925C34.4359 27.7511 34.3269 27.7896 34.2135 27.8056C34.1001 27.8217 33.9847 27.815 33.8739 27.7859C33.7631 27.7568 33.6592 27.706 33.5683 27.6364C33.4774 27.5668 33.4013 27.4797 33.3444 27.3803C33.2874 27.281 33.2509 27.1713 33.2368 27.0576C33.061 25.8241 32.4461 24.6954 31.505 23.8789C30.5639 23.0624 29.3598 22.6129 28.1138 22.6129C26.8678 22.6129 25.6637 23.0624 24.7226 23.8789C23.7815 24.6954 23.1665 25.8241 22.9908 27.0576C22.9767 27.1713 22.9401 27.281 22.8832 27.3803C22.8263 27.4797 22.7502 27.5668 22.6593 27.6364C22.5683 27.706 22.4645 27.7568 22.3537 27.7859C22.2429 27.815 22.1275 27.8217 22.0141 27.8056C21.9007 27.7896 21.7916 27.7511 21.6933 27.6925C21.5949 27.6339 21.5092 27.5562 21.4412 27.4641C21.3731 27.372 21.3241 27.2673 21.297 27.156C21.2698 27.0448 21.2651 26.9292 21.2831 26.8161ZM21.2141 30.3867C21.2141 30.158 21.305 29.9386 21.4667 29.7769C21.6285 29.6151 21.8478 29.5243 22.0766 29.5243H34.151C34.3798 29.5243 34.5991 29.6151 34.7609 29.7769C34.9226 29.9386 35.0135 30.158 35.0135 30.3867V37.2864C35.0135 37.5151 34.9226 37.7345 34.7609 37.8963C34.5991 38.058 34.3798 38.1489 34.151 38.1489H22.0766C21.8478 38.1489 21.6285 38.058 21.4667 37.8963C21.305 37.7345 21.2141 37.5151 21.2141 37.2864V30.3867ZM22.939 31.2492V36.4239H33.2886V31.2492H31.5636V32.1116C31.5636 32.3404 31.4728 32.5597 31.311 32.7215C31.1493 32.8832 30.9299 32.9741 30.7012 32.9741C30.4724 32.9741 30.2531 32.8832 30.0913 32.7215C29.9296 32.5597 29.8387 32.3404 29.8387 32.1116V31.2492H22.939Z" fill="#00407A"/>
<path d="M24.664 18.038V17.4498C24.664 16.5349 25.0274 15.6574 25.6744 15.0104C26.3214 14.3635 27.1989 14 28.1138 14C29.0288 14 29.9063 14.3635 30.5532 15.0104C31.2002 15.6574 31.5637 16.5349 31.5637 17.4498V18.038C32.3657 18.3227 33.123 18.7021 33.8199 19.1644L34.5374 17.0134C34.637 16.7151 34.8164 16.4496 35.056 16.2458C35.2956 16.042 35.5864 15.9076 35.8969 15.8571C36.2074 15.8067 36.5258 15.8421 36.8176 15.9596C37.1095 16.077 37.3636 16.2721 37.5526 16.5236L38.8808 18.2951C39.0487 18.5181 39.1599 18.7785 39.205 19.0541C39.2501 19.3296 39.2276 19.6119 39.1395 19.8768L37.7544 24.0287C38.2115 25.1947 38.4633 26.4694 38.4633 27.7994V37.2864C38.4633 38.4301 38.009 39.527 37.2003 40.3357C36.3916 41.1444 35.2947 41.5987 34.151 41.5987H22.0766C20.9329 41.5987 19.8361 41.1444 19.0273 40.3357C18.2186 39.527 17.7643 38.4301 17.7643 37.2864V27.7994C17.7643 26.4694 18.0161 25.1965 18.4715 24.0287L17.0881 19.8768C17 19.6119 16.9776 19.3296 17.0226 19.0541C17.0677 18.7785 17.179 18.5181 17.3469 18.2951L18.6751 16.5236C18.864 16.2721 19.1182 16.077 19.41 15.9596C19.7018 15.8421 20.0202 15.8067 20.3307 15.8571C20.6412 15.9076 20.932 16.042 21.1716 16.2458C21.4113 16.4496 21.5906 16.7151 21.6902 17.0134L22.4078 19.1644C23.1108 18.6975 23.8686 18.3186 24.664 18.0363V18.038ZM26.3889 17.4498V17.593C27.5309 17.4013 28.6968 17.4013 29.8387 17.593V17.4498C29.8387 16.9924 29.657 16.5536 29.3335 16.2301C29.01 15.9067 28.5713 15.7249 28.1138 15.7249C27.6563 15.7249 27.2176 15.9067 26.8941 16.2301C26.5706 16.5536 26.3889 16.9924 26.3889 17.4498ZM36.6366 21.926L37.5026 19.33L36.1744 17.5585L35.2567 20.3098C35.769 20.7996 36.233 21.3413 36.6366 21.926ZM20.9726 20.3098L20.055 17.5585L18.7268 19.33L19.5927 21.926C19.9963 21.3413 20.4586 20.7996 20.9726 20.3098ZM28.1138 19.1748C25.8264 19.1748 23.6327 20.0834 22.0153 21.7008C20.3979 23.3183 19.4892 25.512 19.4892 27.7994V37.2864C19.4892 37.9726 19.7618 38.6308 20.247 39.116C20.7323 39.6012 21.3904 39.8738 22.0766 39.8738H34.151C34.8373 39.8738 35.4954 39.6012 35.9806 39.116C36.4658 38.6308 36.7384 37.9726 36.7384 37.2864V27.7994C36.7384 25.512 35.8298 23.3183 34.2123 21.7008C32.5949 20.0834 30.4012 19.1748 28.1138 19.1748Z" fill="#00407A"/>
</svg>
