<svg width="26" height="26" viewBox="0 0 26 26" fill="none" xmlns="http://www.w3.org/2000/svg">
<circle cx="13" cy="13" r="12.5" stroke="black"/>
<path d="M14.888 10.9407L11.2239 11.3999L11.0927 12.0078L11.8127 12.1406C12.2831 12.2526 12.3759 12.4222 12.2735 12.891L11.0927 18.4397C10.7823 19.8748 11.2607 20.55 12.3856 20.55C13.2576 20.55 14.2704 20.1468 14.7296 19.5932L14.8704 18.9276C14.5504 19.2092 14.0832 19.3212 13.7728 19.3212C13.3328 19.3212 13.1728 19.0124 13.2864 18.4685L14.888 10.9407ZM15 7.59996C15 8.02429 14.8314 8.43125 14.5314 8.7313C14.2313 9.03135 13.8243 9.19991 13.4 9.19991C12.9756 9.19991 12.5686 9.03135 12.2686 8.7313C11.9685 8.43125 11.7999 8.02429 11.7999 7.59996C11.7999 7.17562 11.9685 6.76867 12.2686 6.46862C12.5686 6.16857 12.9756 6 13.4 6C13.8243 6 14.2313 6.16857 14.5314 6.46862C14.8314 6.76867 15 7.17562 15 7.59996Z" fill="black"/>
</svg>
