<svg width="20" height="25" viewBox="0 0 20 25" fill="none" xmlns="http://www.w3.org/2000/svg">
<g id="Group 115">
<path id="Rectangle 57" d="M6.25176 20.8333H13.1962L16.6684 25H2.77954L6.25176 20.8333Z" fill="#00407A"/>
<path id="Ellipse 42" d="M18.9444 12.5C18.9444 17.5932 14.8155 21.7222 9.72222 21.7222C4.62893 21.7222 0.5 17.5932 0.5 12.5C0.5 7.40667 4.62893 3.27774 9.72222 3.27774C14.8155 3.27774 18.9444 7.40667 18.9444 12.5Z" fill="white" stroke="#00407A"/>
<path id="Vector 20" d="M13.8885 5.28305L5.55518 19.7168" stroke="#00407A" stroke-width="0.5"/>
<path id="Vector 21" d="M16.9381 16.6666L2.50439 8.33328" stroke="#00407A" stroke-width="0.5"/>
<path id="Vector 22" d="M1.6731 14.6566L17.7718 10.343" stroke="#00407A" stroke-width="0.5"/>
<path id="Vector 23" d="M7.56567 4.45065L11.8793 20.5494" stroke="#00407A" stroke-width="0.5"/>
<path id="Ellipse 43" d="M16.4184 12.5C16.4184 16.1972 13.4212 19.1944 9.72398 19.1944C6.02674 19.1944 3.02954 16.1972 3.02954 12.5C3.02954 8.80274 6.02674 5.80554 9.72398 5.80554C13.4212 5.80554 16.4184 8.80274 16.4184 12.5Z" fill="white" stroke="#00407A" stroke-width="0.5"/>
<path id="Vector 16" d="M9.72046 5.55554V19.4444" stroke="#00407A" stroke-width="0.5"/>
<path id="Vector 17" d="M16.6658 12.5L2.77689 12.5" stroke="#00407A" stroke-width="0.5"/>
<path id="Vector 18" d="M4.81104 17.4105L14.632 7.58954" stroke="#00407A" stroke-width="0.5"/>
<path id="Vector 19" d="M4.81104 7.58954L14.632 17.4105" stroke="#00407A" stroke-width="0.5"/>
<path id="Ellipse 44" d="M10.862 12.5C10.862 13.129 10.3521 13.6389 9.72312 13.6389C9.09413 13.6389 8.58423 13.129 8.58423 12.5C8.58423 11.871 9.09413 11.3611 9.72312 11.3611C10.3521 11.3611 10.862 11.871 10.862 12.5Z" fill="white" stroke="#00407A" stroke-width="0.5"/>
<path id="Polygon 2" d="M9.72222 5.55554L7.3166 1.38888L12.1278 1.38888L9.72222 5.55554Z" fill="#00407A"/>
</g>
</svg>
