<svg width="24" height="24" viewBox="0 0 24 24" fill="none" xmlns="http://www.w3.org/2000/svg">
<path id="Vector" d="M16 21.3333L8 18.52V2.66667L16 5.48M23.3333 0C23.2533 0 23.1867 0 23.12 0L16 2.8L8 0L0.48 2.53333C0.2 2.62667 0 2.86667 0 3.17333V23.3333C0 23.5101 0.070238 23.6797 0.195262 23.8047C0.320287 23.9298 0.489856 24 0.666667 24C0.733333 24 0.813333 24 0.88 23.96L8 21.2L16 24L23.52 21.4667C23.8 21.3333 24 21.1333 24 20.8267V0.666667C24 0.489856 23.9298 0.320287 23.8047 0.195262C23.6797 0.070238 23.5101 0 23.3333 0Z" fill="#00407A"/>
</svg>
