<svg width="27" height="22" viewBox="0 0 27 22" fill="none" xmlns="http://www.w3.org/2000/svg">
<path d="M1 20.0212C2.90024 18.9647 5.05579 18.4085 7.25 18.4085C9.44421 18.4085 11.5998 18.9647 13.5 20.0212C15.4002 18.9647 17.5558 18.4085 19.75 18.4085C21.9442 18.4085 24.0998 18.9647 26 20.0212M1 2.63394C2.90024 1.57744 5.05579 1.02124 7.25 1.02124C9.44421 1.02124 11.5998 1.57744 13.5 2.63394C15.4002 1.57744 17.5558 1.02124 19.75 1.02124C21.9442 1.02124 24.0998 1.57744 26 2.63394M1 2.63394V20.0212V2.63394ZM13.5 2.63394V20.0212V2.63394ZM26 2.63394V20.0212V2.63394Z" fill="#00407A"/>
<path d="M13.5 20.0212C11.5998 18.9647 9.44421 18.4085 7.25 18.4085C5.05579 18.4085 2.90024 18.9647 1 20.0212V2.63394C2.90024 1.57744 5.05579 1.02124 7.25 1.02124C9.44421 1.02124 11.5998 1.57744 13.5 2.63394M13.5 20.0212C15.4002 18.9647 17.5558 18.4085 19.75 18.4085C21.9442 18.4085 24.0998 18.9647 26 20.0212V2.63394C24.0998 1.57744 21.9442 1.02124 19.75 1.02124C17.5558 1.02124 15.4002 1.57744 13.5 2.63394M13.5 20.0212V2.63394" stroke="#00407A" stroke-width="2" stroke-linecap="round" stroke-linejoin="round"/>
</svg>
