<svg width="93" height="54" viewBox="0 0 93 54" fill="none" xmlns="http://www.w3.org/2000/svg">
<path d="M53.9933 40C53.4109 39.9996 52.8291 39.9657 52.2506 39.8986C51.8274 39.8491 51.5735 39.7972 51.571 39.7972C51.5685 39.7972 51.4216 39.7799 51.1652 39.7205C50.7992 39.6348 50.4391 39.5257 50.0872 39.394C49.5552 39.1959 49.0399 38.956 48.5462 38.6768C47.9097 38.3164 47.3088 37.8974 46.7512 37.4253C46.1918 36.9536 45.6753 36.4338 45.2077 35.8721C44.8416 35.4374 44.5088 34.9761 44.2119 34.492C44.0176 34.1731 43.843 33.8427 43.6891 33.5027C43.582 33.2554 43.5372 33.1268 43.5372 33.1243C43.5372 33.1219 43.348 32.7162 43.124 32.1004C42.9945 31.7393 42.875 31.3782 42.7804 31.027C42.6629 30.6111 42.5682 30.1892 42.4966 29.7632C42.4271 29.3306 42.3806 28.8947 42.3572 28.4573C42.3373 28.0838 42.3273 27.6906 42.3323 27.2899C42.3323 26.6098 42.3846 26.1324 42.3846 26.1275C42.2803 26.4197 42.1971 26.7189 42.1356 27.0228C42.0642 27.3569 42.011 27.6946 41.9763 28.0344C41.9325 28.4633 41.9176 28.8946 41.9315 29.3254C41.9315 29.3947 41.9315 29.4664 41.9315 29.5431C41.9315 29.919 41.9539 30.3889 42.0236 30.9578C42.1092 31.6487 42.2533 32.3313 42.4543 32.9982C42.5851 33.452 42.7464 33.8965 42.9372 34.3288C43.2638 35.0458 43.6269 35.7458 44.0252 36.4261C44.5178 37.1764 45.0488 37.9012 45.616 38.5976C45.9869 39.0453 46.1886 39.2407 46.1911 39.2407C46.1438 39.2259 45.9645 39.1739 45.6932 39.0775C45.4218 38.981 44.9463 38.798 44.416 38.5482C43.8256 38.2708 43.255 37.9534 42.7082 37.5985C42.0653 37.182 41.4649 36.704 40.9157 36.1714C40.6021 35.8647 40.3133 35.563 40.0369 35.2489C39.7183 34.8878 39.4071 34.5069 39.1183 34.1136C38.7946 33.6734 38.4785 33.2035 38.1847 32.7162C37.8611 32.182 37.5499 31.6058 37.2586 31.0048C36.9578 30.3695 36.7194 29.7069 36.5466 29.0261C36.3838 28.3982 36.2574 27.7616 36.1682 27.1193C36.0722 26.4553 36.014 25.7864 35.9939 25.1159C35.9939 25.1159 35.9939 24.233 36.0562 23.3673C36.0921 22.9522 36.1511 22.5394 36.2329 22.1307C36.2976 21.7968 36.3574 21.5668 36.3574 21.5643C35.4982 21.5287 34.6572 21.3076 33.8927 20.9163C33.5977 20.7742 33.3147 20.6088 33.0463 20.4217C32.8461 20.2823 32.6572 20.1277 32.4812 19.9592C32.3327 19.8193 32.2015 19.6624 32.0903 19.4917C32.0903 19.4917 32.4613 19.5783 33.0189 19.6624C33.35 19.7119 33.6836 19.7514 34.0147 19.7786C34.4255 19.8133 34.8263 19.8306 35.2072 19.8306C35.8805 19.8371 36.5525 19.7707 37.2113 19.6327C37.7662 19.5068 38.3093 19.3339 38.8345 19.1158C39.2777 18.9328 39.7092 18.723 40.1265 18.4876C40.5302 18.2675 40.9179 18.0195 41.2867 17.7456C41.2145 17.7605 40.8211 17.8396 40.2261 17.9163C39.8452 17.9657 39.4594 18.0053 39.076 18.035C38.598 18.0696 38.125 18.0894 37.6719 18.0894C37.3831 18.0894 37.0993 18.0894 36.8254 18.0671C36.5516 18.0449 36.2927 18.0276 36.0213 17.988C35.7499 17.9484 35.4686 17.8891 35.1898 17.8272C34.6342 17.7048 34.0909 17.5326 33.5666 17.3128L33.5193 17.293C33.36 17.2262 33.1633 17.1421 32.9318 17.021C32.6548 16.8764 32.3893 16.711 32.1376 16.5263C31.7845 16.2645 31.4516 15.9768 31.1418 15.6656C30.7174 15.2376 30.3208 14.7832 29.9543 14.3053C29.5591 13.7969 29.2085 13.2557 28.9062 12.6878C28.6766 12.2555 28.4802 11.8065 28.3187 11.3448C28.2163 11.0453 28.1331 10.7397 28.0697 10.4297C28.0124 10.2022 28 10.0785 28 10.0785C28 10.0785 28.3212 10.3258 28.8141 10.6177C29.1054 10.7958 29.3991 10.959 29.6904 11.1123C30.0358 11.2905 30.3906 11.4498 30.7534 11.5897C31.1236 11.7292 31.5018 11.8465 31.8862 11.9409C32.2123 12.0225 32.5583 12.0942 32.9144 12.1536C33.5168 12.255 33.945 12.2871 33.95 12.2871C34.2808 12.3214 34.6133 12.3362 34.9458 12.3317C36.221 12.3179 37.4927 12.1971 38.7473 11.9706C39.4618 11.8469 40.3133 11.6762 41.2792 11.4561C42.051 11.283 42.8974 11.0777 43.7936 10.8502C45.3197 10.4569 46.4724 10.1404 46.4823 10.1404C46.4923 10.1404 46.1836 10.0538 45.7131 9.96228C45.4268 9.89303 45.1504 9.85346 44.8641 9.81636C44.5081 9.77184 44.1521 9.74216 43.8061 9.72979C43.6268 9.72979 43.4327 9.72979 43.231 9.72979C41.8692 9.72979 40.4353 9.87819 40.4203 9.87819C40.4726 9.84604 40.9456 9.54183 41.69 9.16094C42.1505 8.91362 42.626 8.70586 43.1015 8.508C43.6816 8.26603 44.2741 8.05469 44.8766 7.87485C45.4974 7.69141 46.1273 7.53952 46.7637 7.41977C47.2989 7.31837 47.8566 7.23428 48.4192 7.17245C49.3802 7.05868 50.0399 7.03889 50.0449 7.03889C49.9935 6.65922 49.9652 6.27682 49.9602 5.89377C49.9526 5.50664 49.9668 5.11938 50.0026 4.73381C50.0421 4.29049 50.1187 3.8512 50.2316 3.42051C50.3524 2.97705 50.5124 2.54504 50.7096 2.12947C50.8863 1.7564 51.0833 1.39312 51.2996 1.04124C51.5174 0.681335 51.7551 0.333719 52.0116 0C52.0131 0.38639 52.0406 0.77225 52.0938 1.15501C52.1469 1.55952 52.2226 1.9608 52.3203 2.35701C52.4376 2.83595 52.5907 3.30553 52.7784 3.76182C52.9267 4.11826 53.1111 4.45883 53.3286 4.77833C53.5526 5.11222 53.8265 5.45353 54.1178 5.83194C55.1481 6.85161 56.2772 7.76785 57.4886 8.56736C57.8745 8.84684 58.2753 9.13621 58.6686 9.42558C59.5898 10.1057 60.1624 10.5781 60.4611 10.8551C60.6217 10.9927 60.7738 11.1397 60.9167 11.2954C61.2412 11.628 61.5431 11.9816 61.8204 12.3539C62.1091 12.7347 62.3751 13.1319 62.6171 13.5436C62.9029 14.0279 63.1477 14.535 63.349 15.0597C63.5364 15.5511 63.6781 16.0586 63.7722 16.5758C63.8444 16.9726 63.8836 17.3746 63.8892 17.7778C63.8929 18.0481 63.8771 18.3184 63.8419 18.5865C63.8282 18.7024 63.8066 18.8173 63.7772 18.9303C63.6618 19.1662 63.5153 19.3858 63.3415 19.5833C63.1828 19.7733 63.0097 19.9511 62.8237 20.115C62.8237 20.157 62.8511 20.5453 62.8486 21.0845C62.8486 21.4159 62.8486 21.735 62.8212 22.0367C62.7988 22.4127 62.7639 22.7614 62.7141 23.0705C62.663 23.3931 62.594 23.7126 62.5075 24.0277C62.4353 24.2899 62.3532 24.552 62.2586 24.8117C62.0967 25.2569 61.9623 25.5339 61.9623 25.5364C61.9623 25.5389 61.7955 24.9255 61.4943 24.1093C61.32 23.6344 61.1333 23.1843 60.9441 22.7738C60.7329 22.3078 60.49 21.8566 60.2171 21.4234C59.7916 20.7412 59.2309 20.1522 58.5691 19.6921L58.3201 19.4893C58.0445 19.2467 57.7834 18.9882 57.5384 18.7151C57.2579 18.5689 56.9685 18.4401 56.672 18.3293C56.3534 18.2081 56.0247 18.0993 55.6912 18.0078C55.2821 17.8938 54.8664 17.8046 54.4464 17.7407C53.9485 17.7036 53.4157 17.6838 52.9228 17.6838C52.3473 17.6439 51.7692 17.705 51.215 17.8643C50.066 18.7131 49.0773 19.7573 48.2947 20.9485C48.0484 21.3154 47.828 21.6989 47.635 22.0961C47.475 22.425 47.3321 22.7618 47.2068 23.1052C47.0861 23.4285 46.9855 23.7589 46.9056 24.0945C46.7679 24.6101 46.668 25.135 46.6068 25.665C46.541 26.195 46.5119 26.7288 46.5197 27.2627C46.527 27.8718 46.5979 28.4786 46.7313 29.0731C46.957 30.0657 47.3189 31.0227 47.8068 31.9174C48.0609 32.3758 48.3401 32.82 48.6433 33.248C48.8574 33.5497 48.9943 33.7105 49.0018 33.7179C49.0092 33.7253 49.0789 33.8441 49.2507 34.0568C49.4922 34.3634 49.7524 34.655 50.0299 34.9298C50.4624 35.3592 50.925 35.7575 51.4141 36.1219C52.0668 36.6077 52.7569 37.0419 53.478 37.4204C54.5301 37.9752 55.6569 38.3775 56.8239 38.615C57.5689 38.7723 58.3278 38.8551 59.0894 38.8623C59.413 38.8623 59.5873 38.845 59.6072 38.8425C59.2603 39.0012 58.9046 39.1399 58.5417 39.258C58.1483 39.3891 57.74 39.5053 57.3268 39.6043C56.8105 39.7282 56.2877 39.824 55.7609 39.8912C55.1746 39.9644 54.5842 40.0008 53.9933 40ZM58.7782 14.9385C58.7782 14.9385 58.9226 15.171 59.1018 15.5098C59.3144 15.9072 59.495 16.3207 59.6421 16.7464C59.6645 16.8132 59.6894 16.8825 59.7142 16.9492C59.7496 17.038 59.7796 17.1289 59.8039 17.2213C59.8254 17.4432 59.8171 17.6669 59.779 17.8866L60.4985 18.5692L61.2951 19.4052L61.1333 18.9377C61.1638 18.8055 61.1689 18.6687 61.1482 18.5346C61.1284 18.366 61.09 18.2002 61.0337 18.0399C60.9517 17.8068 60.8466 17.5823 60.72 17.3697C60.5516 17.0906 60.3671 16.8213 60.1673 16.5634C59.9806 16.3161 59.7665 16.0539 59.5275 15.772C59.1192 15.302 58.7832 14.9434 58.7782 14.9385Z" fill="#E3E0FF"/>
<path d="M68.7481 23.8534C67.9982 26.3056 66.464 28.4482 64.3768 29.9544C62.2896 31.4606 59.7646 32.248 57.1853 32.1982C54.6215 32.0625 52.1729 31.1009 50.2078 29.4593C48.2428 27.8176 46.868 25.5859 46.2936 23.0998C46.0298 24.8335 46.1454 26.603 46.634 28.2879C47.1225 29.9727 47.9717 31.5338 49.1235 32.8624C50.2211 34.0887 51.5629 35.0767 53.062 35.7656C54.5612 36.4545 56.1855 36.83 57.8369 36.867C59.5253 36.9188 61.2051 36.583 62.7431 35.8888C64.281 35.1945 65.6347 34.16 66.7059 32.8624C67.7487 31.6339 68.4803 30.1745 68.8356 28.6067C69.1909 27.0389 69.1603 25.4074 68.7481 23.8534Z" fill="#E3E0FF"/>
<path d="M64.8348 26.6977C65.6252 26.6977 66.2659 26.0612 66.2659 25.276C66.2659 24.4908 65.6252 23.8543 64.8348 23.8543C64.0445 23.8543 63.4038 24.4908 63.4038 25.276C63.4038 26.0612 64.0445 26.6977 64.8348 26.6977Z" fill="#E3E0FF"/>
<path d="M62.9854 20.3909C63.1178 20.6929 63.3154 20.9628 63.564 21.1807C63.8126 21.3987 64.1065 21.5612 64.4246 21.6541C65.0329 21.8445 65.6558 21.9857 66.2869 22.0768C66.0254 21.7989 65.7114 21.5731 65.3631 21.415C64.8452 21.2191 64.3182 21.0497 63.7828 20.9078C63.4704 20.8203 63.1916 20.64 62.9854 20.3909Z" fill="#E3E0FF"/>
<path d="M63.1309 20.3321C63.3538 20.514 63.6034 20.6567 63.8746 20.7546C64.3723 20.9475 64.8996 21.002 65.2356 21.1627C65.9822 21.5237 66.1154 21.7591 66.1154 21.7591C65.8116 21.5584 65.4934 21.3811 65.1627 21.2279C64.5977 20.9955 64.3254 21.0296 63.86 20.8343C63.5853 20.7176 63.3374 20.5465 63.1309 20.3321Z" fill="#E3E0FF"/>
<path d="M63.1123 20.3592C63.3921 20.5356 63.7072 20.6494 64.0357 20.6925C64.3642 20.7356 64.6983 20.7071 65.0146 20.609C65.6268 20.4286 66.2234 20.1994 66.7985 19.9237C66.4256 19.8329 66.0377 19.8205 65.6597 19.8873C65.119 20.0137 64.5854 20.1682 64.061 20.35C63.7534 20.4509 63.4218 20.4541 63.1123 20.3592V20.3592Z" fill="#E3E0FF"/>
<path d="M63.1895 20.2362C63.481 20.2572 63.774 20.2302 64.0567 20.1561C64.5765 20.0375 65.05 19.7887 65.4238 19.7202C66.239 19.5944 66.3748 19.6794 66.3748 19.6794C66.0409 19.6914 65.7092 19.7378 65.385 19.8178C64.7948 19.9478 64.5804 20.1273 64.0868 20.2314C63.7911 20.2935 63.4858 20.2952 63.1895 20.2362V20.2362Z" fill="#E3E0FF"/>
<path d="M63.207 20.2577C63.5432 20.2335 63.8707 20.1407 64.1691 19.9851C64.4675 19.8295 64.7305 19.6145 64.9415 19.3534C65.3203 18.9059 65.6578 18.4253 65.9497 17.9175C65.6088 18.0139 65.2995 18.198 65.0533 18.4513C64.6762 18.8565 64.3208 19.281 63.9883 19.7231C63.7902 19.9776 63.5171 20.1645 63.207 20.2577V20.2577Z" fill="#E3E0FF"/>
<path d="M63.252 20.1714C63.5 20.0173 63.7203 19.8231 63.9038 19.5968C64.2518 19.1929 64.4322 18.7787 64.7017 18.51C65.286 17.9254 65.6055 17.9222 65.6055 17.9222C65.3006 18.0916 65.0189 18.2993 64.7675 18.5403C64.3735 18.9861 64.3093 19.2622 63.9657 19.631C63.7673 19.8576 63.5244 20.0415 63.252 20.1714V20.1714Z" fill="#E3E0FF"/>
<path d="M0.802202 52V46.1818H1.47266V48.3295H1.52947C1.57872 48.2538 1.6469 48.1572 1.73402 48.0398C1.82304 47.9205 1.94993 47.8144 2.1147 47.7216C2.28137 47.6269 2.50675 47.5795 2.79084 47.5795C3.15826 47.5795 3.48213 47.6714 3.76243 47.8551C4.04273 48.0388 4.26148 48.2992 4.41868 48.6364C4.57588 48.9735 4.65447 49.3712 4.65447 49.8295C4.65447 50.2917 4.57588 50.6922 4.41868 51.0312C4.26148 51.3684 4.04368 51.6297 3.76527 51.8153C3.48686 51.9991 3.16584 52.0909 2.8022 52.0909C2.5219 52.0909 2.29747 52.0445 2.12891 51.9517C1.96035 51.857 1.83061 51.75 1.7397 51.6307C1.64879 51.5095 1.57872 51.4091 1.52947 51.3295H1.44993V52H0.802202ZM1.46129 49.8182C1.46129 50.1477 1.50959 50.4384 1.60618 50.6903C1.70277 50.9403 1.84387 51.1364 2.02947 51.2784C2.21508 51.4186 2.44235 51.4886 2.71129 51.4886C2.9916 51.4886 3.2255 51.4148 3.413 51.267C3.60239 51.1174 3.74444 50.9167 3.83913 50.6648C3.93572 50.411 3.98402 50.1288 3.98402 49.8182C3.98402 49.5114 3.93667 49.2348 3.84197 48.9886C3.74917 48.7405 3.60807 48.5445 3.41868 48.4006C3.23118 48.2547 2.99538 48.1818 2.71129 48.1818C2.43857 48.1818 2.2094 48.2509 2.02379 48.3892C1.83819 48.5256 1.69804 48.7169 1.60334 48.9631C1.50864 49.2074 1.46129 49.4924 1.46129 49.8182ZM5.95561 53.6364C5.84197 53.6364 5.74065 53.6269 5.65163 53.608C5.56262 53.5909 5.50107 53.5739 5.46697 53.5568L5.63743 52.9659C5.80031 53.0076 5.94425 53.0227 6.06925 53.0114C6.19425 53 6.30504 52.9441 6.40163 52.8438C6.50012 52.7453 6.59008 52.5852 6.67152 52.3636L6.79652 52.0227L5.18288 47.6364H5.91016L7.1147 51.1136H7.16016L8.3647 47.6364H9.09197L7.2397 52.6364C7.15637 52.8617 7.05315 53.0483 6.93004 53.196C6.80694 53.3456 6.66394 53.4564 6.50107 53.5284C6.34008 53.6004 6.15826 53.6364 5.95561 53.6364ZM16.9315 46.1818V52H16.2496L13.0792 47.4318H13.0224V52H12.3178V46.1818H12.9996L16.1815 50.7614H16.2383V46.1818H16.9315ZM21.0004 50.2159V47.6364H21.6708V52H21.0004V51.2614H20.9549C20.8526 51.483 20.6935 51.6714 20.4776 51.8267C20.2617 51.9801 19.989 52.0568 19.6594 52.0568C19.3867 52.0568 19.1443 51.9972 18.9322 51.8778C18.7201 51.7566 18.5534 51.5748 18.4322 51.3324C18.311 51.0881 18.2504 50.7803 18.2504 50.4091V47.6364H18.9208V50.3636C18.9208 50.6818 19.0098 50.9356 19.1879 51.125C19.3678 51.3144 19.5969 51.4091 19.8754 51.4091C20.042 51.4091 20.2115 51.3665 20.3839 51.2812C20.5581 51.196 20.704 51.0653 20.8214 50.8892C20.9407 50.7131 21.0004 50.4886 21.0004 50.2159ZM19.6594 47.0455L20.3526 45.7273H21.1367L20.2504 47.0455H19.6594ZM24.6715 52.0909C24.2624 52.0909 23.9102 51.9943 23.6147 51.8011C23.3192 51.608 23.092 51.3419 22.9329 51.0028C22.7738 50.6638 22.6942 50.2765 22.6942 49.8409C22.6942 49.3977 22.7757 49.0066 22.9386 48.6676C23.1033 48.3267 23.3325 48.0606 23.6261 47.8693C23.9215 47.6761 24.2662 47.5795 24.6602 47.5795C24.967 47.5795 25.2435 47.6364 25.4897 47.75C25.7359 47.8636 25.9376 48.0227 26.0948 48.2273C26.252 48.4318 26.3496 48.6705 26.3874 48.9432H25.717C25.6658 48.7443 25.5522 48.5682 25.3761 48.4148C25.2018 48.2595 24.967 48.1818 24.6715 48.1818C24.4102 48.1818 24.181 48.25 23.984 48.3864C23.7889 48.5208 23.6365 48.7112 23.5266 48.9574C23.4187 49.2017 23.3647 49.4886 23.3647 49.8182C23.3647 50.1553 23.4177 50.4489 23.5238 50.6989C23.6317 50.9489 23.7833 51.143 23.9783 51.2812C24.1753 51.4195 24.4064 51.4886 24.6715 51.4886C24.8458 51.4886 25.0039 51.4583 25.146 51.3977C25.288 51.3371 25.4083 51.25 25.5067 51.1364C25.6052 51.0227 25.6753 50.8864 25.717 50.7273H26.3874C26.3496 50.9848 26.2558 51.2169 26.1062 51.4233C25.9585 51.6278 25.7624 51.7907 25.5181 51.9119C25.2757 52.0312 24.9935 52.0909 24.6715 52.0909ZM28.038 46.1818V52H27.3675V46.1818H28.038ZM31.0955 52.0909C30.6751 52.0909 30.3124 51.9981 30.0075 51.8125C29.7044 51.625 29.4705 51.3636 29.3058 51.0284C29.1429 50.6913 29.0614 50.2992 29.0614 49.8523C29.0614 49.4053 29.1429 49.0114 29.3058 48.6705C29.4705 48.3277 29.6997 48.0606 29.9933 47.8693C30.2887 47.6761 30.6334 47.5795 31.0273 47.5795C31.2546 47.5795 31.479 47.6174 31.7006 47.6932C31.9222 47.7689 32.1239 47.892 32.3058 48.0625C32.4876 48.2311 32.6325 48.4545 32.7404 48.733C32.8484 49.0114 32.9023 49.3542 32.9023 49.7614V50.0455H29.5387V49.4659H32.2205C32.2205 49.2197 32.1713 49 32.0728 48.8068C31.9762 48.6136 31.8379 48.4612 31.658 48.3494C31.48 48.2377 31.2698 48.1818 31.0273 48.1818C30.7603 48.1818 30.5292 48.2481 30.3342 48.3807C30.141 48.5114 29.9923 48.6818 29.8881 48.892C29.784 49.1023 29.7319 49.3277 29.7319 49.5682V49.9545C29.7319 50.2841 29.7887 50.5634 29.9023 50.7926C30.0179 51.0199 30.1779 51.1932 30.3825 51.3125C30.587 51.4299 30.8247 51.4886 31.0955 51.4886C31.2717 51.4886 31.4308 51.464 31.5728 51.4148C31.7167 51.3636 31.8408 51.2879 31.945 51.1875C32.0491 51.0852 32.1296 50.9583 32.1864 50.8068L32.8342 50.9886C32.766 51.2083 32.6514 51.4015 32.4904 51.5682C32.3294 51.733 32.1306 51.8617 31.8938 51.9545C31.6571 52.0455 31.391 52.0909 31.0955 52.0909ZM35.695 52.0909C35.301 52.0909 34.9554 51.9972 34.658 51.8097C34.3626 51.6222 34.1315 51.3598 33.9648 51.0227C33.8001 50.6856 33.7177 50.2917 33.7177 49.8409C33.7177 49.3864 33.8001 48.9896 33.9648 48.6506C34.1315 48.3116 34.3626 48.0483 34.658 47.8608C34.9554 47.6733 35.301 47.5795 35.695 47.5795C36.0889 47.5795 36.4336 47.6733 36.729 47.8608C37.0264 48.0483 37.2575 48.3116 37.4222 48.6506C37.5889 48.9896 37.6722 49.3864 37.6722 49.8409C37.6722 50.2917 37.5889 50.6856 37.4222 51.0227C37.2575 51.3598 37.0264 51.6222 36.729 51.8097C36.4336 51.9972 36.0889 52.0909 35.695 52.0909ZM35.695 51.4886C35.9942 51.4886 36.2404 51.4119 36.4336 51.2585C36.6268 51.1051 36.7698 50.9034 36.8626 50.6534C36.9554 50.4034 37.0018 50.1326 37.0018 49.8409C37.0018 49.5492 36.9554 49.2775 36.8626 49.0256C36.7698 48.7737 36.6268 48.5701 36.4336 48.4148C36.2404 48.2595 35.9942 48.1818 35.695 48.1818C35.3957 48.1818 35.1495 48.2595 34.9563 48.4148C34.7631 48.5701 34.6201 48.7737 34.5273 49.0256C34.4345 49.2775 34.3881 49.5492 34.3881 49.8409C34.3881 50.1326 34.4345 50.4034 34.5273 50.6534C34.6201 50.9034 34.7631 51.1051 34.9563 51.2585C35.1495 51.4119 35.3957 51.4886 35.695 51.4886ZM42.5934 52.0909C42.2298 52.0909 41.9087 51.9991 41.6303 51.8153C41.3519 51.6297 41.1341 51.3684 40.9769 51.0312C40.8197 50.6922 40.7411 50.2917 40.7411 49.8295C40.7411 49.3712 40.8197 48.9735 40.9769 48.6364C41.1341 48.2992 41.3529 48.0388 41.6332 47.8551C41.9135 47.6714 42.2373 47.5795 42.6048 47.5795C42.8888 47.5795 43.1133 47.6269 43.2781 47.7216C43.4447 47.8144 43.5716 47.9205 43.6587 48.0398C43.7478 48.1572 43.8169 48.2538 43.8661 48.3295H43.9229V46.1818H44.5934V52H43.9457V51.3295H43.8661C43.8169 51.4091 43.7468 51.5095 43.6559 51.6307C43.565 51.75 43.4353 51.857 43.2667 51.9517C43.0981 52.0445 42.8737 52.0909 42.5934 52.0909ZM42.6843 51.4886C42.9532 51.4886 43.1805 51.4186 43.3661 51.2784C43.5517 51.1364 43.6928 50.9403 43.7894 50.6903C43.886 50.4384 43.9343 50.1477 43.9343 49.8182C43.9343 49.4924 43.887 49.2074 43.7923 48.9631C43.6976 48.7169 43.5574 48.5256 43.3718 48.3892C43.1862 48.2509 42.957 48.1818 42.6843 48.1818C42.4002 48.1818 42.1635 48.2547 41.9741 48.4006C41.7866 48.5445 41.6455 48.7405 41.5508 48.9886C41.458 49.2348 41.4116 49.5114 41.4116 49.8182C41.4116 50.1288 41.4589 50.411 41.5536 50.6648C41.6502 50.9167 41.7923 51.1174 41.9798 51.267C42.1692 51.4148 42.404 51.4886 42.6843 51.4886ZM47.744 52.0909C47.3235 52.0909 46.9608 51.9981 46.6559 51.8125C46.3529 51.625 46.119 51.3636 45.9542 51.0284C45.7913 50.6913 45.7099 50.2992 45.7099 49.8523C45.7099 49.4053 45.7913 49.0114 45.9542 48.6705C46.119 48.3277 46.3481 48.0606 46.6417 47.8693C46.9371 47.6761 47.2818 47.5795 47.6758 47.5795C47.9031 47.5795 48.1275 47.6174 48.3491 47.6932C48.5707 47.7689 48.7724 47.892 48.9542 48.0625C49.136 48.2311 49.2809 48.4545 49.3888 48.733C49.4968 49.0114 49.5508 49.3542 49.5508 49.7614V50.0455H46.1871V49.4659H48.869C48.869 49.2197 48.8197 49 48.7212 48.8068C48.6246 48.6136 48.4864 48.4612 48.3065 48.3494C48.1284 48.2377 47.9182 48.1818 47.6758 48.1818C47.4087 48.1818 47.1777 48.2481 46.9826 48.3807C46.7894 48.5114 46.6407 48.6818 46.5366 48.892C46.4324 49.1023 46.3803 49.3277 46.3803 49.5682V49.9545C46.3803 50.2841 46.4371 50.5634 46.5508 50.7926C46.6663 51.0199 46.8263 51.1932 47.0309 51.3125C47.2354 51.4299 47.4731 51.4886 47.744 51.4886C47.9201 51.4886 48.0792 51.464 48.2212 51.4148C48.3652 51.3636 48.4892 51.2879 48.5934 51.1875C48.6976 51.0852 48.7781 50.9583 48.8349 50.8068L49.4826 50.9886C49.4144 51.2083 49.2998 51.4015 49.1388 51.5682C48.9779 51.733 48.779 51.8617 48.5423 51.9545C48.3055 52.0455 48.0394 52.0909 47.744 52.0909ZM52.5934 46.8068V46.1818H56.957V46.8068H55.1275V52H54.4229V46.8068H52.5934ZM58.7489 46.1818V52H58.0444V46.1818H58.7489ZM64.8207 48.7784V49.4034H62.2752V48.7784H64.8207ZM72.1594 46.1818H72.864V50.0341C72.864 50.4318 72.7702 50.7869 72.5827 51.0994C72.3971 51.41 72.1348 51.6553 71.7958 51.8352C71.4568 52.0133 71.0591 52.1023 70.6026 52.1023C70.1462 52.1023 69.7485 52.0133 69.4094 51.8352C69.0704 51.6553 68.8072 51.41 68.6197 51.0994C68.4341 50.7869 68.3413 50.4318 68.3413 50.0341V46.1818H69.0458V49.9773C69.0458 50.2614 69.1083 50.5142 69.2333 50.7358C69.3583 50.9555 69.5363 51.1288 69.7674 51.2557C70.0004 51.3807 70.2788 51.4432 70.6026 51.4432C70.9265 51.4432 71.2049 51.3807 71.4379 51.2557C71.6708 51.1288 71.8488 50.9555 71.9719 50.7358C72.0969 50.5142 72.1594 50.2614 72.1594 49.9773V46.1818ZM78.8846 46.1818V52H78.2028L75.0323 47.4318H74.9755V52H74.271V46.1818H74.9528L78.1346 50.7614H78.1914V46.1818H78.8846ZM80.9989 46.1818V52H80.2944V46.1818H80.9989ZM85.5934 47.6364C85.5593 47.3485 85.421 47.125 85.1786 46.9659C84.9362 46.8068 84.6388 46.7273 84.2866 46.7273C84.029 46.7273 83.8036 46.7689 83.6104 46.8523C83.4192 46.9356 83.2695 47.0502 83.1616 47.196C83.0555 47.3419 83.0025 47.5076 83.0025 47.6932C83.0025 47.8485 83.0394 47.982 83.1133 48.0938C83.189 48.2036 83.2856 48.2955 83.4031 48.3693C83.5205 48.4413 83.6436 48.5009 83.7724 48.5483C83.9012 48.5937 84.0195 48.6307 84.1275 48.6591L84.7184 48.8182C84.8699 48.858 85.0385 48.9129 85.2241 48.983C85.4116 49.053 85.5906 49.1487 85.761 49.2699C85.9334 49.3892 86.0754 49.5426 86.1871 49.7301C86.2989 49.9176 86.3548 50.1477 86.3548 50.4205C86.3548 50.7348 86.2724 51.0189 86.1076 51.2727C85.9447 51.5265 85.7061 51.7282 85.3917 51.8778C85.0792 52.0275 84.6995 52.1023 84.2525 52.1023C83.8358 52.1023 83.475 52.035 83.1701 51.9006C82.8671 51.7661 82.6284 51.5786 82.4542 51.3381C82.2818 51.0975 82.1843 50.8182 82.1616 50.5H82.8888C82.9078 50.7197 82.9817 50.9015 83.1104 51.0455C83.2411 51.1875 83.4059 51.2936 83.6048 51.3636C83.8055 51.4318 84.0214 51.4659 84.2525 51.4659C84.5214 51.4659 84.7629 51.4223 84.9769 51.3352C85.1909 51.2462 85.3604 51.1231 85.4854 50.9659C85.6104 50.8068 85.6729 50.6212 85.6729 50.4091C85.6729 50.2159 85.619 50.0587 85.511 49.9375C85.4031 49.8163 85.261 49.7178 85.0849 49.642C84.9087 49.5663 84.7184 49.5 84.5138 49.4432L83.7979 49.2386C83.3434 49.108 82.9835 48.9214 82.7184 48.679C82.4532 48.4366 82.3207 48.1193 82.3207 47.7273C82.3207 47.4015 82.4087 47.1174 82.5849 46.875C82.7629 46.6307 83.0015 46.4413 83.3008 46.3068C83.6019 46.1705 83.9381 46.1023 84.3093 46.1023C84.6843 46.1023 85.0176 46.1695 85.3093 46.304C85.601 46.4366 85.832 46.6184 86.0025 46.8494C86.1748 47.0805 86.2657 47.3428 86.2752 47.6364H85.5934ZM92.4222 49.0909C92.4222 49.7045 92.3114 50.2348 92.0898 50.6818C91.8683 51.1288 91.5643 51.4735 91.1779 51.7159C90.7915 51.9583 90.3503 52.0795 89.854 52.0795C89.3578 52.0795 88.9165 51.9583 88.5302 51.7159C88.1438 51.4735 87.8398 51.1288 87.6183 50.6818C87.3967 50.2348 87.2859 49.7045 87.2859 49.0909C87.2859 48.4773 87.3967 47.947 87.6183 47.5C87.8398 47.053 88.1438 46.7083 88.5302 46.4659C88.9165 46.2235 89.3578 46.1023 89.854 46.1023C90.3503 46.1023 90.7915 46.2235 91.1779 46.4659C91.5643 46.7083 91.8683 47.053 92.0898 47.5C92.3114 47.947 92.4222 48.4773 92.4222 49.0909ZM91.7404 49.0909C91.7404 48.5871 91.6561 48.1619 91.4876 47.8153C91.3209 47.4688 91.0946 47.2064 90.8086 47.0284C90.5245 46.8504 90.2063 46.7614 89.854 46.7614C89.5018 46.7614 89.1826 46.8504 88.8967 47.0284C88.6126 47.2064 88.3862 47.4688 88.2177 47.8153C88.051 48.1619 87.9677 48.5871 87.9677 49.0909C87.9677 49.5947 88.051 50.0199 88.2177 50.3665C88.3862 50.7131 88.6126 50.9754 88.8967 51.1534C89.1826 51.3314 89.5018 51.4205 89.854 51.4205C90.2063 51.4205 90.5245 51.3314 90.8086 51.1534C91.0946 50.9754 91.3209 50.7131 91.4876 50.3665C91.6561 50.0199 91.7404 49.5947 91.7404 49.0909Z" fill="#E3E0FF"/>
</svg>
