<svg width="24" height="23" viewBox="0 0 24 23" fill="none" xmlns="http://www.w3.org/2000/svg">
<path d="M21 1.5C21.3978 1.5 21.7794 1.65804 22.0607 1.93934C22.342 2.22064 22.5 2.60218 22.5 3V15C22.5 15.3978 22.342 15.7794 22.0607 16.0607C21.7794 16.342 21.3978 16.5 21 16.5H6.621C5.82542 16.5002 5.06248 16.8164 4.5 17.379L1.5 20.379V3C1.5 2.60218 1.65804 2.22064 1.93934 1.93934C2.22064 1.65804 2.60218 1.5 3 1.5H21ZM3 0C2.20435 0 1.44129 0.316071 0.87868 0.87868C0.316071 1.44129 0 2.20435 0 3V22.1895C3.15223e-05 22.3379 0.0440889 22.483 0.126596 22.6063C0.209103 22.7297 0.32635 22.8258 0.463499 22.8825C0.600648 22.9392 0.751531 22.9539 0.897054 22.9248C1.04258 22.8957 1.1762 22.8241 1.281 22.719L5.5605 18.4395C5.84174 18.1582 6.22321 18.0001 6.621 18H21C21.7956 18 22.5587 17.6839 23.1213 17.1213C23.6839 16.5587 24 15.7957 24 15V3C24 2.20435 23.6839 1.44129 23.1213 0.87868C22.5587 0.316071 21.7956 0 21 0H3Z" fill="#2C3593"/>
<path d="M10.599 7.14C10.3068 6.68497 9.87482 6.33707 9.36797 6.14859C8.86112 5.96011 8.30678 5.94122 7.78828 6.09478C7.26977 6.24833 6.81511 6.56603 6.49264 7.00012C6.17016 7.43421 5.99729 7.96124 6 8.502C6.00027 8.9498 6.12079 9.38931 6.34896 9.77462C6.57714 10.1599 6.9046 10.4769 7.29714 10.6924C7.68967 10.9079 8.13288 11.014 8.58045 10.9997C9.02802 10.9854 9.46354 10.8512 9.8415 10.611C9.645 11.1945 9.279 11.817 8.676 12.441C8.56063 12.5603 8.4974 12.7206 8.50021 12.8866C8.50302 13.0526 8.57165 13.2106 8.691 13.326C8.81035 13.4414 8.97064 13.5046 9.13661 13.5018C9.30258 13.499 9.46063 13.4303 9.576 13.311C11.805 11.001 11.5155 8.49 10.599 7.143V7.14ZM16.599 7.14C16.3068 6.68497 15.8748 6.33707 15.368 6.14859C14.8611 5.96011 14.3068 5.94122 13.7883 6.09478C13.2698 6.24833 12.8151 6.56603 12.4926 7.00012C12.1702 7.43421 11.9973 7.96124 12 8.502C12.0003 8.9498 12.1208 9.38931 12.349 9.77462C12.5771 10.1599 12.9046 10.4769 13.2971 10.6924C13.6897 10.9079 14.1329 11.014 14.5805 10.9997C15.028 10.9854 15.4635 10.8512 15.8415 10.611C15.645 11.1945 15.279 11.817 14.676 12.441C14.5606 12.5603 14.4974 12.7206 14.5002 12.8866C14.503 13.0526 14.5717 13.2106 14.691 13.326C14.8103 13.4414 14.9706 13.5046 15.1366 13.5018C15.3026 13.499 15.4606 13.4303 15.576 13.311C17.805 11.001 17.5155 8.49 16.599 7.143V7.14Z" fill="#2C3593"/>
</svg>
