<svg width="20" height="20" viewBox="0 0 20 20" fill="none" xmlns="http://www.w3.org/2000/svg">
<path id="Vector" d="M20 11.5C20 13.26 18.7 14.72 17 14.96V18C17 18.5304 16.7893 19.0391 16.4142 19.4142C16.0391 19.7893 15.5304 20 15 20H11.2V19.7C11.2 18.9839 10.9155 18.2972 10.4092 17.7908C9.90284 17.2845 9.21608 17 8.5 17C7 17 5.8 18.21 5.8 19.7V20H2C1.46957 20 0.960859 19.7893 0.585786 19.4142C0.210714 19.0391 0 18.5304 0 18V14.2H0.3C1.79 14.2 3 13 3 11.5C3 10 1.79 8.8 0.3 8.8H0V5C0 4.46957 0.210714 3.96086 0.585786 3.58579C0.960859 3.21071 1.46957 3 2 3H5.04C5.28 1.3 6.74 0 8.5 0C10.26 0 11.72 1.3 11.96 3H15C15.5304 3 16.0391 3.21071 16.4142 3.58579C16.7893 3.96086 17 4.46957 17 5V8.04C18.7 8.28 20 9.74 20 11.5ZM15 13H16.5C16.8978 13 17.2794 12.842 17.5607 12.5607C17.842 12.2794 18 11.8978 18 11.5C18 11.1022 17.842 10.7206 17.5607 10.4393C17.2794 10.158 16.8978 10 16.5 10H15V5H10V3.5C10 3.10218 9.84196 2.72064 9.56066 2.43934C9.27936 2.15804 8.89782 2 8.5 2C8.10218 2 7.72064 2.15804 7.43934 2.43934C7.15804 2.72064 7 3.10218 7 3.5V5H2V7.12C3.76 7.8 5 9.5 5 11.5C5 13.5 3.75 15.2 2 15.88V18H4.12C4.8 16.25 6.5 15 8.5 15C10.5 15 12.2 16.25 12.88 18H15V13Z" fill="#2C3593"/>
</svg>
