<svg width="25" height="30" viewBox="0 0 25 30" fill="none" xmlns="http://www.w3.org/2000/svg">
<path d="M15.3222 2.21748L15.492 2.13796L15.5676 1.96645L15.892 1.23088L16.2228 1.96917L16.2984 2.13795L16.4657 2.21688L17.2271 2.57621L16.4657 2.93554L16.2984 3.01448L16.2228 3.18326L15.892 3.92154L15.5676 3.18597L15.492 3.01447L15.3222 2.93495L14.5565 2.57621L15.3222 2.21748ZM9.08235 6.13408L9.25335 6.05471L9.32938 5.88219L10.2421 3.81127L11.1638 5.88374L11.2399 6.0547L11.4095 6.13374L13.4496 7.08459L11.4095 8.03543L11.2399 8.11447L11.1638 8.28543L10.2421 10.3579L9.32938 8.28698L9.25335 8.11446L9.08235 8.03509L7.03449 7.08459L9.08235 6.13408ZM11.7652 20.7884L3.47509 29.2712L2.4029 28.1709L14.3134 15.9479L14.5514 15.7037L14.4109 15.393C13.6261 13.6574 14.153 11.1024 16.0448 9.16038C17.4667 7.71371 19.2383 7.02747 20.7394 7.11987C21.6146 7.17691 22.4142 7.52766 23.0143 8.11955C23.8043 8.93259 24.126 10.1218 23.9559 11.432C23.7857 12.7436 23.1232 14.1431 21.9944 15.3015C20.1014 17.2442 17.6257 17.7734 15.9527 16.9767L15.6294 16.8227L15.3796 17.0791L13.5345 18.9726L13.1944 19.3216L13.5345 19.6705L21.8301 28.1838L20.7584 29.2836L12.4809 20.7889L12.1233 20.4219L11.7652 20.7884ZM1 10.7299C1 9.6667 1.35278 8.64256 1.98944 7.82156L10.0817 16.1024L7.2265 19.0429L2.32696 14.0268C2.32676 14.0266 2.32655 14.0264 2.32635 14.0262C1.47838 13.1532 1 11.968 1 10.7299Z" fill="#00407A" stroke="#00407A"/>
</svg>
