<svg width="24" height="24" viewBox="0 0 24 24" fill="none" xmlns="http://www.w3.org/2000/svg">
<g id="bi:paperclip">
<path id="Vector" d="M6.75 4.75C6.75 3.75544 7.14509 2.80161 7.84835 2.09835C8.55161 1.39509 9.50544 1 10.5 1C11.4946 1 12.4484 1.39509 13.1517 2.09835C13.8549 2.80161 14.25 3.75544 14.25 4.75V18.25C14.25 18.8467 14.0129 19.419 13.591 19.841C13.169 20.2629 12.5967 20.5 12 20.5C11.4033 20.5 10.831 20.2629 10.409 19.841C9.98705 19.419 9.75 18.8467 9.75 18.25V7.75C9.75 7.55109 9.82902 7.36032 9.96967 7.21967C10.1103 7.07902 10.3011 7 10.5 7C10.6989 7 10.8897 7.07902 11.0303 7.21967C11.171 7.36032 11.25 7.55109 11.25 7.75V18.25C11.25 18.4489 11.329 18.6397 11.4697 18.7803C11.6103 18.921 11.8011 19 12 19C12.1989 19 12.3897 18.921 12.5303 18.7803C12.671 18.6397 12.75 18.4489 12.75 18.25V4.75C12.75 4.45453 12.6918 4.16194 12.5787 3.88896C12.4657 3.61598 12.2999 3.36794 12.091 3.15901C11.8821 2.95008 11.634 2.78434 11.361 2.67127C11.0881 2.5582 10.7955 2.5 10.5 2.5C10.2045 2.5 9.91194 2.5582 9.63896 2.67127C9.36598 2.78434 9.11794 2.95008 8.90901 3.15901C8.70008 3.36794 8.53434 3.61598 8.42127 3.88896C8.3082 4.16194 8.25 4.45453 8.25 4.75V18.25C8.25 19.2446 8.64509 20.1984 9.34835 20.9016C10.0516 21.6049 11.0054 22 12 22C12.9946 22 13.9484 21.6049 14.6517 20.9016C15.3549 20.1984 15.75 19.2446 15.75 18.25V7.75C15.75 7.55109 15.829 7.36032 15.9697 7.21967C16.1103 7.07902 16.3011 7 16.5 7C16.6989 7 16.8897 7.07902 17.0303 7.21967C17.171 7.36032 17.25 7.55109 17.25 7.75V18.25C17.25 19.6424 16.6969 20.9777 15.7123 21.9623C14.7277 22.9469 13.3924 23.5 12 23.5C10.6076 23.5 9.27226 22.9469 8.28769 21.9623C7.30312 20.9777 6.75 19.6424 6.75 18.25V4.75Z" fill="#00407A"/>
</g>
</svg>
