<svg width="24" height="24" viewBox="0 0 24 24" fill="none" xmlns="http://www.w3.org/2000/svg">
<g id="bi:book" clip-path="url(#clip0_225_297)">
<path id="Vector" d="M1.5 3.89819C2.8275 3.34319 4.731 2.74469 6.582 2.55869C8.577 2.35769 10.269 2.65319 11.25 3.68669V18.3057C9.8475 17.5107 8.07 17.4012 6.4305 17.5662C4.6605 17.7462 2.8755 18.2577 1.5 18.7827V3.89819ZM12.75 3.68669C13.731 2.65319 15.423 2.35769 17.418 2.55869C19.269 2.74469 21.1725 3.34319 22.5 3.89819V18.7827C21.123 18.2577 19.3395 17.7447 17.5695 17.5677C15.9285 17.4012 14.1525 17.5092 12.75 18.3057V3.68669ZM12 2.33069C10.5225 1.06019 8.3805 0.871193 6.4305 1.06619C4.1595 1.29569 1.8675 2.07419 0.4395 2.72369C0.308474 2.78329 0.197363 2.87932 0.119432 3.00034C0.0415 3.12136 3.98571e-05 3.26225 0 3.40619L0 19.9062C3.4743e-05 20.0317 0.0315557 20.1552 0.0916756 20.2653C0.151796 20.3755 0.238593 20.4688 0.344116 20.5367C0.44964 20.6046 0.570517 20.6449 0.695675 20.654C0.820833 20.6631 0.946271 20.6406 1.0605 20.5887C2.3835 19.9887 4.515 19.2672 6.5805 19.0587C8.694 18.8457 10.4655 19.1892 11.415 20.3742C11.4853 20.4618 11.5743 20.5325 11.6756 20.5811C11.7768 20.6296 11.8877 20.6549 12 20.6549C12.1123 20.6549 12.2232 20.6296 12.3244 20.5811C12.4257 20.5325 12.5147 20.4618 12.585 20.3742C13.5345 19.1892 15.306 18.8457 17.418 19.0587C19.485 19.2672 21.618 19.9887 22.9395 20.5887C23.0537 20.6406 23.1792 20.6631 23.3043 20.654C23.4295 20.6449 23.5504 20.6046 23.6559 20.5367C23.7614 20.4688 23.8482 20.3755 23.9083 20.2653C23.9684 20.1552 24 20.0317 24 19.9062V3.40619C24 3.26225 23.9585 3.12136 23.8806 3.00034C23.8026 2.87932 23.6915 2.78329 23.5605 2.72369C22.1325 2.07419 19.8405 1.29569 17.5695 1.06619C15.6195 0.869693 13.4775 1.06019 12 2.33069Z" fill="#00407A"/>
</g>
<defs>
<clipPath id="clip0_225_297">
<rect width="24" height="24" fill="white"/>
</clipPath>
</defs>
</svg>
