<svg width="18" height="22" viewBox="0 0 18 22" fill="none" xmlns="http://www.w3.org/2000/svg">
<path id="Vector" d="M3.121 15.102L2.92752 14.3774L2.92675 14.3776L3.121 15.102ZM5 5.25C4.58579 5.25 4.25 5.58579 4.25 6C4.25 6.41421 4.58579 6.75 5 6.75V5.25ZM13 6.75C13.4142 6.75 13.75 6.41421 13.75 6C13.75 5.58579 13.4142 5.25 13 5.25V6.75ZM5 8.75C4.58579 8.75 4.25 9.08579 4.25 9.5C4.25 9.91421 4.58579 10.25 5 10.25V8.75ZM10 10.25C10.4142 10.25 10.75 9.91421 10.75 9.5C10.75 9.08579 10.4142 8.75 10 8.75V10.25ZM7 21.75C7.41421 21.75 7.75 21.4142 7.75 21C7.75 20.5858 7.41421 20.25 7 20.25V21.75ZM1.879 20.121L2.40963 19.591L2.40903 19.5904L1.879 20.121ZM1.879 1.879L2.40903 2.40963L2.40963 2.40903L1.879 1.879ZM16.121 1.879L15.5904 2.40903L15.591 2.40963L16.121 1.879ZM16.25 7C16.25 7.41421 16.5858 7.75 17 7.75C17.4142 7.75 17.75 7.41421 17.75 7H16.25ZM11 20.25C10.5858 20.25 10.25 20.5858 10.25 21C10.25 21.4142 10.5858 21.75 11 21.75V20.25ZM16.121 20.121L15.591 19.5904L15.5904 19.591L16.121 20.121ZM17.75 11C17.75 10.5858 17.4142 10.25 17 10.25C16.5858 10.25 16.25 10.5858 16.25 11H17.75ZM16.898 14.25H4.898V15.75H16.898V14.25ZM4.898 14.25C4.01605 14.25 3.42855 14.2436 2.92752 14.3774L3.31448 15.8266C3.57745 15.7564 3.91995 15.75 4.898 15.75V14.25ZM2.92675 14.3776C2.29089 14.5481 1.71112 14.883 1.24572 15.3486L2.30663 16.409C2.58587 16.1296 2.93373 15.9287 3.31525 15.8264L2.92675 14.3776ZM1.24572 15.3486C0.780326 15.8142 0.445706 16.3942 0.2755 17.0301L1.7245 17.4179C1.82662 17.0363 2.0274 16.6884 2.30663 16.409L1.24572 15.3486ZM5 6.75H13V5.25H5V6.75ZM5 10.25H10V8.75H5V10.25ZM7 20.25C5.56479 20.25 4.56361 20.2484 3.80821 20.1468C3.07434 20.0481 2.68596 19.8676 2.40963 19.591L1.34837 20.651C1.95004 21.2534 2.70816 21.5124 3.60829 21.6334C4.48689 21.7516 5.60721 21.75 7 21.75V20.25ZM2.40903 19.5904C2.13239 19.314 1.95188 18.9257 1.85318 18.1918C1.75159 17.4364 1.75 16.4352 1.75 15H0.25C0.25 16.3928 0.248406 17.5131 0.366567 18.3917C0.487621 19.2918 0.746613 20.05 1.34897 20.6516L2.40903 19.5904ZM1.75 15V7H0.25V15H1.75ZM1.75 7C1.75 5.56479 1.75159 4.56361 1.85318 3.80821C1.95188 3.07434 2.13239 2.68596 2.40903 2.40963L1.34897 1.34837C0.746613 1.95004 0.487621 2.70816 0.366567 3.60829C0.248406 4.48689 0.25 5.60721 0.25 7H1.75ZM2.40963 2.40903C2.68596 2.13239 3.07434 1.95188 3.80821 1.85318C4.56361 1.75159 5.56479 1.75 7 1.75V0.25C5.60721 0.25 4.48689 0.248406 3.60829 0.366567C2.70816 0.48762 1.95004 0.746613 1.34837 1.34897L2.40963 2.40903ZM7 1.75H11V0.25H7V1.75ZM11 1.75C12.4352 1.75 13.4364 1.75159 14.1918 1.85318C14.9257 1.95188 15.314 2.13239 15.5904 2.40903L16.6516 1.34897C16.05 0.746613 15.2918 0.48762 14.3917 0.366567C13.5131 0.248406 12.3928 0.25 11 0.25V1.75ZM15.591 2.40963C15.8676 2.68596 16.0481 3.07434 16.1468 3.80821C16.2484 4.56361 16.25 5.56479 16.25 7H17.75C17.75 5.60721 17.7516 4.48689 17.6334 3.60829C17.5124 2.70816 17.2534 1.95004 16.651 1.34837L15.591 2.40963ZM11 21.75C12.3928 21.75 13.5131 21.7516 14.3917 21.6334C15.2918 21.5124 16.05 21.2534 16.6516 20.651L15.5904 19.591C15.314 19.8676 14.9257 20.0481 14.1918 20.1468C13.4364 20.2484 12.4352 20.25 11 20.25V21.75ZM16.651 20.6516C17.2534 20.05 17.5124 19.2918 17.6334 18.3917C17.7516 17.5131 17.75 16.3928 17.75 15H16.25C16.25 16.4352 16.2484 17.4364 16.1468 18.1918C16.0481 18.9257 15.8676 19.314 15.591 19.5904L16.651 20.6516ZM17.75 15V11H16.25V15H17.75Z" fill="#00407A"/>
</svg>
