<svg width="56" height="56" viewBox="0 0 56 56" fill="none" xmlns="http://www.w3.org/2000/svg">
<circle cx="28" cy="28" r="27.5" fill="#00407A" stroke="white"/>
<path d="M27.5 15C28.7096 15 29.8814 15.1593 30.9965 15.4576L28.1264 18.3264C27.9087 18.545 27.7166 18.7878 27.554 19.05H27.5C25.631 19.05 23.8039 19.6042 22.2499 20.6426C20.6958 21.681 19.4846 23.1569 18.7693 24.8836C18.0541 26.6104 17.8669 28.5105 18.2316 30.3436C18.5962 32.1767 19.4962 33.8606 20.8178 35.1822C22.1394 36.5038 23.8233 37.4038 25.6564 37.7684C27.4895 38.1331 29.3896 37.9459 31.1164 37.2307C32.8431 36.5154 34.319 35.3042 35.3574 33.7501C36.3958 32.1961 36.95 30.369 36.95 28.5V28.446C37.2092 28.284 37.4522 28.0937 37.6723 27.8723L40.5423 25.0035C40.8407 26.1186 41 27.2904 41 28.5C41 35.9561 34.9561 42 27.5 42C20.044 42 14 35.9561 14 28.5C14 21.044 20.044 15 27.5 15ZM26.9411 21.773C26.9411 22.9218 26.8844 24.0869 26.9465 25.2344L26.2175 25.9634C25.9667 26.2141 25.7678 26.5118 25.6321 26.8395C25.4964 27.1671 25.4265 27.5183 25.4265 27.8729C25.4265 28.2276 25.4964 28.5787 25.6321 28.9064C25.7678 29.234 25.9667 29.5317 26.2175 29.7825C26.4683 30.0333 26.766 30.2322 27.0936 30.3679C27.4213 30.5036 27.7724 30.5735 28.1271 30.5735C28.4817 30.5735 28.8329 30.5036 29.1605 30.3679C29.4882 30.2322 29.7859 30.0333 30.0366 29.7825L30.7656 29.0535C31.9131 29.1156 33.0769 29.0589 34.2271 29.0589C34.1204 30.3419 33.6491 31.5676 32.8687 32.5915C32.0883 33.6154 31.0314 34.3947 29.8226 34.8377C28.6138 35.2806 27.3036 35.3686 26.0464 35.0913C24.7893 34.814 23.6376 34.183 22.7273 33.2727C21.817 32.3624 21.186 31.2107 20.9087 29.9536C20.6314 28.6964 20.7194 27.3862 21.1623 26.1774C21.6053 24.9686 22.3846 23.9117 23.4085 23.1313C24.4324 22.3509 25.6581 21.8796 26.9411 21.773ZM36.2804 15.1715C36.5268 15.2736 36.7374 15.4465 36.8857 15.6683C37.0339 15.89 37.1132 16.1507 37.1134 16.4175V18.888H39.5825C39.8495 18.8881 40.1104 18.9673 40.3324 19.1156C40.5543 19.264 40.7273 19.4748 40.8295 19.7214C40.9316 19.9681 40.9584 20.2395 40.9063 20.5013C40.8542 20.7631 40.7257 21.0037 40.5369 21.1924L35.762 25.962C35.5089 26.2152 35.1656 26.3575 34.8076 26.3576H31.55L29.0808 28.8267C28.8275 29.0798 28.484 29.222 28.1259 29.2218C27.7678 29.2217 27.4244 29.0793 27.1713 28.826C26.9181 28.5727 26.776 28.2292 26.7761 27.8711C26.7763 27.513 26.9186 27.1696 27.172 26.9164L29.6411 24.45V21.1911C29.641 21.0136 29.6758 20.8378 29.7437 20.6738C29.8116 20.5098 29.9111 20.3608 30.0366 20.2353L34.8089 15.463C34.9977 15.2741 35.2383 15.1455 35.5002 15.0933C35.7621 15.0412 36.0337 15.0679 36.2804 15.1701V15.1715Z" fill="white"/>
</svg>
