<svg width="56" height="56" viewBox="0 0 56 56" fill="none" xmlns="http://www.w3.org/2000/svg">
<circle cx="28" cy="28" r="27.5" fill="#00407A" stroke="white"/>
<path d="M19 25.3752C19 23.8271 19.368 22.3031 20.0711 20.9392C20.7743 19.5754 21.7908 18.4142 23.0298 17.5592C24.2688 16.7043 25.6917 16.1823 27.1716 16.0398C28.6515 15.8973 30.1422 16.1388 31.5106 16.7426C32.8791 17.3465 34.0827 18.294 35.014 19.5004C35.9452 20.7069 36.5752 22.1348 36.8476 23.6567C37.1199 25.1785 37.0263 26.747 36.5749 28.222C36.1236 29.6969 35.3286 31.0325 34.261 32.1095C33.9565 32.4157 33.7225 32.7345 33.5815 33.0767L32.4385 35.8407C32.3805 35.9808 32.2844 36.1001 32.1621 36.184C32.0397 36.2678 31.8965 36.3125 31.75 36.3126C31.9489 36.3126 32.1397 36.3949 32.2803 36.5414C32.421 36.6879 32.5 36.8866 32.5 37.0938C32.5 37.301 32.421 37.4997 32.2803 37.6462C32.1397 37.7927 31.9489 37.875 31.75 37.875C31.9489 37.875 32.1397 37.9573 32.2803 38.1039C32.421 38.2504 32.5 38.4491 32.5 38.6563C32.5 38.8635 32.421 39.0622 32.2803 39.2087V39.2087C32.0291 39.4704 31.65 39.6454 31.4927 39.9724L31.414 40.1359C31.2895 40.3954 31.0981 40.6137 30.8613 40.7663C30.6244 40.9189 30.3515 40.9998 30.073 41H25.927C25.6485 40.9998 25.3756 40.9189 25.1387 40.7663C24.9019 40.6137 24.7105 40.3954 24.586 40.1359L24.5073 39.9724C24.35 39.6454 23.971 39.4704 23.7197 39.2087V39.2087C23.579 39.0622 23.5 38.8635 23.5 38.6563C23.5 38.4491 23.579 38.2504 23.7197 38.1039C23.8603 37.9573 24.0511 37.875 24.25 37.875C24.0511 37.875 23.8603 37.7927 23.7197 37.6462C23.579 37.4997 23.5 37.301 23.5 37.0938C23.5 36.8866 23.579 36.6879 23.7197 36.5414C23.8603 36.3949 24.0511 36.3126 24.25 36.3126C24.1033 36.3128 23.9597 36.2683 23.8371 36.1844C23.7144 36.1005 23.6181 35.981 23.56 35.8407L22.4185 33.0751C22.2551 32.7099 22.0242 32.3818 21.739 32.1095C20.8714 31.2363 20.1818 30.1899 19.7111 29.0329C19.2405 27.8758 18.9987 26.6318 19 25.3752ZM28 17.5628C26.5062 17.5625 25.0464 18.0269 23.8077 18.8964C22.5689 19.7659 21.6076 21.0009 21.047 22.4431C20.4864 23.8853 20.352 25.4691 20.661 26.9914C20.97 28.5137 21.7084 29.9052 22.7815 30.9876C23.176 31.3845 23.5525 31.8689 23.7955 32.4579V32.4579C24.3703 33.8454 25.7242 34.7501 27.226 34.7501H28.7775C30.2789 34.7501 31.6322 33.8453 32.206 32.4579V32.4579C32.449 31.8689 32.8255 31.3845 33.22 30.9876C34.2932 29.9051 35.0316 28.5135 35.3406 26.991C35.6496 25.4686 35.515 23.8847 34.9542 22.4424C34.3934 21.0001 33.4319 19.7651 32.1929 18.8957C30.9539 18.0263 29.4939 17.5622 28 17.5628Z" fill="white"/>
</svg>
