<svg width="56" height="59" viewBox="0 0 56 59" fill="none" xmlns="http://www.w3.org/2000/svg">
<path d="M55.5 29.4651C55.5 45.4864 43.1641 58.4302 28 58.4302C12.8359 58.4302 0.5 45.4864 0.5 29.4651C0.5 13.4438 12.8359 0.5 28 0.5C43.1641 0.5 55.5 13.4438 55.5 29.4651Z" fill="#00407A" stroke="white"/>
<path d="M39.7104 17.6754C39.4494 17.396 39.0954 17.2192 38.7504 17.1024C38.3437 16.9743 37.9246 16.8948 37.5009 16.8656C36.5709 16.7882 35.41 16.8656 34.123 17.1418C31.5475 17.6975 28.396 19.0708 25.4725 21.7306C22.5475 24.3921 20.7205 27.6091 19.8355 30.2911C19.3945 31.6281 19.1755 32.8704 19.192 33.8712C19.1995 34.37 19.267 34.8499 19.423 35.2603C19.4485 35.3235 19.4755 35.3898 19.507 35.4529C18.3274 37.2087 17.1979 39.0011 16.12 40.8279C16.0107 41.0122 15.9742 41.2342 16.0182 41.4465C16.0622 41.6588 16.1832 41.8446 16.3555 41.9644C16.4403 42.0224 16.5352 42.0619 16.6348 42.0806C16.7343 42.0993 16.8364 42.0969 16.935 42.0733C17.0336 42.0498 17.1267 42.0056 17.2088 41.9435C17.2909 41.8815 17.3603 41.8027 17.413 41.7118C18.4446 39.964 19.5241 38.2479 20.65 36.5658C21.0775 36.7884 21.574 36.8736 22.087 36.8531C22.8565 36.8215 23.734 36.5563 24.6715 36.0796C26.5465 35.1246 28.7875 33.2587 31.126 30.3305L33.403 27.8838C33.548 27.728 33.6292 27.5186 33.6292 27.3005C33.6292 27.0824 33.548 26.873 33.403 26.7173L32.3095 25.5428L34.276 25.8727C34.3967 25.8927 34.5202 25.8816 34.6359 25.8404C34.7516 25.7991 34.8561 25.729 34.9405 25.636C35.2735 25.2729 35.6065 24.9098 35.935 24.5562C36.9294 23.4828 37.8729 22.4647 38.5794 21.5696C39.0504 20.9729 39.4569 20.3826 39.7104 19.8222C39.9549 19.2776 40.1274 18.602 39.8784 17.9469C39.84 17.8456 39.7829 17.7533 39.7104 17.6754ZM21.5995 35.1798C24.0775 31.6344 26.86 28.2263 29.9635 25.3518L31.7785 27.2997L30.022 29.1877C30.0079 29.2029 29.9944 29.2187 29.9815 29.235C27.7315 32.059 25.645 33.7607 24.016 34.591C23.2 35.0062 22.531 35.1877 22.03 35.2067C21.8859 35.2142 21.7415 35.2063 21.5995 35.1798ZM31.753 23.7827C33.718 22.16 35.803 20.7614 38.0109 19.6785C37.8236 19.9637 37.6234 20.2392 37.4109 20.5041C36.7479 21.3455 35.869 22.2942 34.8895 23.3518L34.1245 24.179L31.753 23.7827ZM36.7719 18.4836C30.391 21.8048 25.0675 27.5712 20.7235 33.6928C20.734 32.9604 20.905 31.9785 21.2785 30.842C22.078 28.4189 23.7535 25.4513 26.461 22.9872C29.1715 20.5231 32.08 19.2618 34.426 18.7567C35.1975 18.5844 35.9833 18.4929 36.7719 18.4836Z" fill="white"/>
</svg>
